<svg width="100%" height="100%" viewBox="0 0 53 59" fill="none" xmlns="http://www.w3.org/2000/svg">
<path d="M4 12C4 6.47715 8.47715 2 14 2H43C48.5228 2 53 6.47715 53 12V31C53 36.5228 48.5228 41 43 41H9C6.23858 41 4 38.7614 4 36V12Z" fill="#D7DA45"/>
<path d="M9.73691 37.032L26.6671 36.5918L9.80229 53.9678L9.73691 37.032Z" fill="#D7DA45"/>
<path d="M21.6667 19.503V11.7857C21.6667 11.5773 21.7632 11.3775 21.9352 11.2301C22.1071 11.0828 22.3402 11 22.5833 11C22.8264 11 23.0596 11.0828 23.2315 11.2301C23.4034 11.3775 23.5 11.5773 23.5 11.7857V19.503C24.0364 19.3404 24.5008 19.0393 24.8291 18.6411C25.1575 18.2428 25.3336 17.7671 25.3333 17.2794V11.7857C25.3333 11.5773 25.4299 11.3775 25.6018 11.2301C25.7737 11.0828 26.0069 11 26.25 11C26.4931 11 26.7263 11.0828 26.8982 11.2301C27.0701 11.3775 27.1667 11.5773 27.1667 11.7857V17.2794C27.1669 18.1851 26.802 19.063 26.1339 19.7646C25.4657 20.4661 24.5353 20.9483 23.5 21.1294V32.2143C23.5 32.4227 23.4034 32.6225 23.2315 32.7699C23.0596 32.9172 22.8264 33 22.5833 33C22.3402 33 22.1071 32.9172 21.9352 32.7699C21.7632 32.6225 21.6667 32.4227 21.6667 32.2143V21.1294C20.6314 20.9483 19.701 20.4661 19.0328 19.7646C18.3646 19.063 17.9998 18.1851 18 17.2794V11.7857C18 11.5773 18.0966 11.3775 18.2685 11.2301C18.4404 11.0828 18.6736 11 18.9167 11C19.1598 11 19.3929 11.0828 19.5648 11.2301C19.7368 11.3775 19.8333 11.5773 19.8333 11.7857V17.2794C19.833 17.7671 20.0092 18.2428 20.3376 18.6411C20.6659 19.0393 21.1303 19.3404 21.6667 19.503ZM33.5833 23.485C30.9818 22.9853 29 20.4003 29 17.2857C29 13.8129 31.4622 11 34.5 11C37.5378 11 40 13.8129 40 17.2857C40 20.4003 38.0182 22.9853 35.4167 23.485V32.2143C35.4167 32.4227 35.3201 32.6225 35.1482 32.7699C34.9763 32.9172 34.7431 33 34.5 33C34.2569 33 34.0237 32.9172 33.8518 32.7699C33.6799 32.6225 33.5833 32.4227 33.5833 32.2143V23.485ZM34.5 22C36.392 22 38.1667 19.9729 38.1667 17.2857C38.1667 14.5986 36.392 12.5714 34.5 12.5714C32.608 12.5714 30.8333 14.5986 30.8333 17.2857C30.8333 19.9729 32.608 22 34.5 22Z" fill="#F4F4F4"/>
</svg>
