<svg width="100%" height="100%" viewBox="0 0 60 62" fill="none" xmlns="http://www.w3.org/2000/svg">
<path d="M4 15C4 9.47715 8.47715 5 14 5H43C48.5228 5 53 9.47715 53 15V34C53 39.5228 48.5228 44 43 44H9C6.23858 44 4 41.7614 4 39V15Z" fill="#D7DA45"/>
<path d="M9.73691 40.032L26.6671 39.5918L9.80229 56.9678L9.73691 40.032Z" fill="#D7DA45"/>
<path d="M21.6667 22.503V14.7857C21.6667 14.5773 21.7632 14.3775 21.9352 14.2301C22.1071 14.0828 22.3402 14 22.5833 14C22.8264 14 23.0596 14.0828 23.2315 14.2301C23.4034 14.3775 23.5 14.5773 23.5 14.7857V22.503C24.0364 22.3404 24.5008 22.0393 24.8291 21.6411C25.1575 21.2428 25.3336 20.7671 25.3333 20.2794V14.7857C25.3333 14.5773 25.4299 14.3775 25.6018 14.2301C25.7737 14.0828 26.0069 14 26.25 14C26.4931 14 26.7263 14.0828 26.8982 14.2301C27.0701 14.3775 27.1667 14.5773 27.1667 14.7857V20.2794C27.1669 21.1851 26.802 22.063 26.1339 22.7646C25.4657 23.4661 24.5353 23.9483 23.5 24.1294V35.2143C23.5 35.4227 23.4034 35.6225 23.2315 35.7699C23.0596 35.9172 22.8264 36 22.5833 36C22.3402 36 22.1071 35.9172 21.9352 35.7699C21.7632 35.6225 21.6667 35.4227 21.6667 35.2143V24.1294C20.6314 23.9483 19.701 23.4661 19.0328 22.7646C18.3646 22.063 17.9998 21.1851 18 20.2794V14.7857C18 14.5773 18.0966 14.3775 18.2685 14.2301C18.4404 14.0828 18.6736 14 18.9167 14C19.1598 14 19.3929 14.0828 19.5648 14.2301C19.7368 14.3775 19.8333 14.5773 19.8333 14.7857V20.2794C19.833 20.7671 20.0092 21.2428 20.3376 21.6411C20.6659 22.0393 21.1303 22.3404 21.6667 22.503ZM33.5833 26.485C30.9818 25.9853 29 23.4003 29 20.2857C29 16.8129 31.4622 14 34.5 14C37.5378 14 40 16.8129 40 20.2857C40 23.4003 38.0182 25.9853 35.4167 26.485V35.2143C35.4167 35.4227 35.3201 35.6225 35.1482 35.7699C34.9763 35.9172 34.7431 36 34.5 36C34.2569 36 34.0237 35.9172 33.8518 35.7699C33.6799 35.6225 33.5833 35.4227 33.5833 35.2143V26.485ZM34.5 25C36.392 25 38.1667 22.9729 38.1667 20.2857C38.1667 17.5986 36.392 15.5714 34.5 15.5714C32.608 15.5714 30.8333 17.5986 30.8333 20.2857C30.8333 22.9729 32.608 25 34.5 25Z" fill="#F4F4F4"/>
<rect x="32" width="24" height="12" rx="3" fill="#F71818"/>
<path d="M38.638 8.35H37.399V3.247H38.638L40.493 6.782V3.247H41.515V8.35H40.437L38.638 5.158V8.35ZM45.821 4.059H43.504V5.305H45.415V5.998H43.504V7.58H45.821V8.343H42.349V3.254H45.821V4.059ZM51.7403 3.247H52.7553L51.0753 8.35H50.2213L49.4933 6.537L48.7653 8.35H47.9113L46.2313 3.247H47.4983L48.5763 6.649L49.3323 4.423H49.6543L50.6623 6.901L51.7403 3.247Z" fill="white"/>
</svg>
