<svg width="22" height="19" viewBox="0 0 22 19" fill="none" xmlns="http://www.w3.org/2000/svg">
<path d="M11.4902 15.8795C15.2704 15.8795 18.3348 12.8151 18.3348 9.03488C18.3348 5.25467 15.2704 2.19022 11.4902 2.19022C7.70997 2.19022 4.64552 5.25467 4.64552 9.03488C4.64552 12.8151 7.70997 15.8795 11.4902 15.8795Z" fill="#E8E8E8"/>
<path d="M11.4902 13.6106C14.0173 13.6106 16.0659 11.562 16.0659 9.03488C16.0659 6.50777 14.0173 4.45914 11.4902 4.45914C8.96307 4.45914 6.91444 6.50777 6.91444 9.03488C6.91444 11.562 8.96307 13.6106 11.4902 13.6106Z" fill="url(#paint0_linear_8_594)"/>
<path d="M11.3927 13.6395C13.8072 13.6395 15.7645 11.6822 15.7645 9.26771C15.7645 6.85325 13.8072 4.89594 11.3927 4.89594C8.97822 4.89594 7.02091 6.85325 7.02091 9.26771C7.02091 11.6822 8.97822 13.6395 11.3927 13.6395Z" fill="white"/>
<path d="M11.5136 13.3994C13.8623 13.3994 15.7663 11.4954 15.7663 9.14678C15.7663 6.79811 13.8623 4.89413 11.5136 4.89413C9.16498 4.89413 7.261 6.79811 7.261 9.14678C7.261 11.4954 9.16498 13.3994 11.5136 13.3994Z" fill="#E8E8E8"/>
<path opacity="0.2" d="M11.4902 2.55122C15.0641 2.55122 17.9738 5.45912 17.9738 9.03488C17.9738 12.6106 15.0659 15.5185 11.4902 15.5185C7.91442 15.5185 5.00833 12.6088 5.00833 9.03488C5.00833 5.46092 7.91622 2.55122 11.4902 2.55122ZM11.4902 2.19022C7.71045 2.19022 4.64552 5.25515 4.64552 9.03488C4.64552 12.8146 7.71045 15.8795 11.4902 15.8795C15.2699 15.8795 18.3348 12.8146 18.3348 9.03488C18.3348 5.25515 15.2699 2.19022 11.4902 2.19022Z" fill="#424242"/>
<path d="M4.06248 0.637888C4.04443 0.255222 3.95779 0.0819397 3.80075 0.0819397C3.62747 0.0819397 3.54083 0.255222 3.52278 0.637888L3.3152 3.6956C3.3152 3.86889 3.21051 3.99163 3.07152 3.99163C2.95058 3.99163 2.84589 3.87069 2.84589 3.6956L2.60221 0.637888C2.56792 0.238977 2.49933 0.0819397 2.34229 0.0819397C2.18525 0.0819397 2.09861 0.238977 2.08237 0.637888L1.83869 3.6956C1.80439 3.86889 1.6997 3.99163 1.59501 3.99163C1.49032 3.99163 1.38743 3.87069 1.35133 3.6956L1.1618 0.637888C1.12751 0.255222 1.05711 0.0819397 0.883829 0.0819397C0.710546 0.0819397 0.64015 0.255222 0.605855 0.637888C0.519214 2.1487 0.327881 3.6595 0.327881 6.09268C0.327881 6.64863 0.501163 7.09988 0.831483 7.36161L1.45783 7.86522C1.61486 7.98615 1.71775 8.19553 1.70151 8.5421L1.4488 17.1539C1.44158 17.6539 1.8441 18.0654 2.3441 18.0654C2.84589 18.0654 3.24841 17.6521 3.23939 17.1503L2.96863 8.5421C2.95058 8.19373 3.05528 7.9681 3.21231 7.84717L3.83685 7.36161C4.16717 7.10169 4.35851 6.63238 4.35851 6.09268C4.3567 3.66131 4.16537 2.1487 4.06248 0.637888Z" fill="url(#paint1_radial_8_594)"/>
<path opacity="0.2" d="M3.79895 1.8996C3.89281 3.03496 3.99569 4.32736 3.99569 6.09268C3.99569 6.51867 3.85129 6.88689 3.61303 7.07642L2.98849 7.56197C2.83326 7.68291 2.57694 7.97352 2.60582 8.55293L2.87658 17.1575C2.87838 17.3037 2.82423 17.4409 2.72135 17.5438C2.62026 17.6467 2.48489 17.7044 2.34049 17.7044C2.19608 17.7044 2.06071 17.6485 1.95962 17.5456C1.85854 17.4427 1.80259 17.3055 1.80439 17.1647L2.0571 8.56015C2.08417 8.01684 1.86396 7.72623 1.67985 7.58363L1.0517 7.07822C0.815238 6.8905 0.685276 6.54213 0.685276 6.09268C0.685276 4.36707 0.782748 3.09633 0.869389 1.97722C0.871194 1.95195 0.872999 1.92848 0.874804 1.90321L0.988521 3.71907C0.990326 3.73531 0.992131 3.75156 0.995741 3.7678C1.06433 4.11256 1.30982 4.35263 1.5932 4.35263C1.87659 4.35263 2.12208 4.11256 2.19067 3.766C2.19428 3.75156 2.19608 3.73892 2.19608 3.72448L2.34049 1.91585L2.48308 3.71185C2.4903 4.07105 2.74481 4.35083 3.06972 4.35083C3.40906 4.35083 3.66718 4.07646 3.6744 3.70824L3.79895 1.8996ZM3.80075 0.0819397C3.62747 0.0819397 3.54083 0.255222 3.52278 0.637888L3.3152 3.6956C3.3152 3.86889 3.21051 3.99163 3.07152 3.99163C2.95058 3.99163 2.84589 3.87069 2.84589 3.6956L2.60221 0.637888C2.56792 0.238977 2.49933 0.0819397 2.34229 0.0819397C2.18525 0.0819397 2.09861 0.238977 2.08237 0.637888L1.83869 3.6956C1.80439 3.86889 1.6997 3.99163 1.59501 3.99163C1.49032 3.99163 1.38743 3.87069 1.35133 3.6956L1.1618 0.637888C1.12751 0.255222 1.05711 0.0819397 0.883829 0.0819397C0.710546 0.0819397 0.64015 0.255222 0.605855 0.637888C0.519214 2.1487 0.327881 3.6595 0.327881 6.09268C0.327881 6.64863 0.501163 7.09988 0.831483 7.36161L1.45783 7.86522C1.61486 7.98615 1.71775 8.19553 1.70151 8.5421L1.4488 17.1539C1.44158 17.6539 1.8441 18.0654 2.3441 18.0654C2.84589 18.0654 3.24841 17.6521 3.23939 17.1503L2.96863 8.5421C2.95058 8.19373 3.05528 7.9681 3.21231 7.84717L3.83685 7.36161C4.16717 7.10169 4.35851 6.63238 4.35851 6.09268C4.35851 3.66131 4.16717 2.1505 4.06248 0.637888C4.04443 0.255222 3.95779 0.0819397 3.80075 0.0819397Z" fill="#424242"/>
<path d="M21.6254 8.66846V0.820199C21.6254 0.161364 21.4341 -0.0173337 21.055 0.23176C20.0911 0.865324 19.1579 3.94831 19.1579 7.72443C19.1579 9.1161 20.5334 8.92838 20.5947 9.34354L20.1687 17.199C20.1615 17.699 20.5695 18.1105 21.0694 18.1105C21.5712 18.1105 21.8907 17.6972 21.8817 17.1954L21.6254 8.66846Z" fill="url(#paint2_radial_8_594)"/>
<path opacity="0.2" d="M21.2463 0.538595C21.2572 0.598161 21.2644 0.688413 21.2644 0.82018V8.66844V8.67927L21.5207 17.2026C21.5243 17.3741 21.4702 17.5293 21.3727 17.6304C21.2951 17.7098 21.1922 17.7495 21.0712 17.7495C20.925 17.7495 20.7879 17.6918 20.685 17.5871C20.5839 17.4842 20.5297 17.3506 20.5297 17.2098L20.9557 9.36157C20.9575 9.3381 20.9557 9.31464 20.9521 9.29117C20.9016 8.941 20.5695 8.80923 20.3041 8.70273C19.8998 8.54208 19.5189 8.38866 19.5189 7.72441C19.5189 3.78764 20.5189 1.02956 21.2463 0.538595ZM21.333 0.125244C21.2554 0.125244 21.1633 0.161345 21.055 0.231741C20.0911 0.865305 19.1579 3.94829 19.1579 7.72441C19.1579 9.11608 20.5334 8.92836 20.5947 9.34352L20.1687 17.199C20.1615 17.699 20.5695 18.1105 21.0694 18.1105C21.5712 18.1105 21.8907 17.6972 21.8817 17.1954L21.6254 8.66844V0.82018C21.6254 0.350873 21.5279 0.125244 21.333 0.125244Z" fill="#424242"/>
<defs>
<linearGradient id="paint0_linear_8_594" x1="13.7176" y1="6.30803" x2="8.75376" y2="12.385" gradientUnits="userSpaceOnUse">
<stop offset="0.00022998" stop-color="#BDBDBD"/>
<stop offset="0.1211" stop-color="#C8C8C8"/>
<stop offset="0.4234" stop-color="#DDDDDD"/>
<stop offset="0.7183" stop-color="#EAEAEA"/>
<stop offset="0.9949" stop-color="#EEEEEE"/>
</linearGradient>
<radialGradient id="paint1_radial_8_594" cx="0" cy="0" r="1" gradientUnits="userSpaceOnUse" gradientTransform="translate(2.34247 9.07314) scale(6.51542)">
<stop stop-color="#A8A8A8"/>
<stop offset="0.1684" stop-color="#BFBFBF"/>
<stop offset="0.4001" stop-color="#D9D9D9"/>
<stop offset="0.6095" stop-color="#E9E9E9"/>
<stop offset="0.7755" stop-color="#EEEEEE"/>
</radialGradient>
<radialGradient id="paint2_radial_8_594" cx="0" cy="0" r="1" gradientUnits="userSpaceOnUse" gradientTransform="translate(20.5207 9.11718) scale(5.10588 5.10588)">
<stop offset="0.0017339" stop-color="#A3A3A3"/>
<stop offset="0.1847" stop-color="#B7B7B7"/>
<stop offset="0.5159" stop-color="#D5D5D5"/>
<stop offset="0.7993" stop-color="#E7E7E7"/>
<stop offset="1" stop-color="#EEEEEE"/>
</radialGradient>
</defs>
</svg>
