<svg width="100%" height="100%" viewBox="0 0 32 32" fill="none" xmlns="http://www.w3.org/2000/svg">
<path d="M5.356 23.788C5.56359 23.9964 5.72267 24.248 5.82188 24.5249C5.9211 24.8018 5.95801 25.0972 5.93 25.39C5.78909 26.7451 5.52262 28.0842 5.134 29.39C7.924 28.744 9.628 27.996 10.402 27.604C10.841 27.3816 11.3466 27.329 11.822 27.456C13.1846 27.8207 14.5894 28.0036 16 28C23.992 28 30 22.386 30 16C30 9.614 23.992 4 16 4C8.008 4 2 9.616 2 16C2 18.936 3.234 21.66 5.356 23.788ZM4.37 31.598C3.89612 31.6918 3.42072 31.7778 2.944 31.856C2.544 31.92 2.24 31.504 2.398 31.132C2.57511 30.713 2.73787 30.2881 2.886 29.858L2.892 29.838C3.388 28.398 3.792 26.742 3.94 25.2C1.486 22.74 0 19.52 0 16C0 8.268 7.164 2 16 2C24.836 2 32 8.268 32 16C32 23.732 24.836 30 16 30C14.4152 30.0035 12.8369 29.7978 11.306 29.388C10.266 29.914 8.028 30.872 4.37 31.598Z" fill="black"/>
</svg>
