<svg width="100%" height="100%" viewBox="0 0 23 23" fill="none" xmlns="http://www.w3.org/2000/svg">
<path d="M11.0164 1.83606C9.2007 1.83606 7.42578 2.37448 5.91608 3.38322C4.40638 4.39197 3.22972 5.82574 2.53488 7.50323C1.84004 9.18071 1.65824 11.0266 2.01247 12.8074C2.36669 14.5882 3.24104 16.224 4.52493 17.5079C5.80882 18.7918 7.4446 19.6661 9.22541 20.0203C11.0062 20.3745 12.8521 20.1927 14.5296 19.4979C16.207 18.8031 17.6408 17.6264 18.6496 16.1167C19.6583 14.607 20.1967 12.8321 20.1967 11.0164C20.1967 9.81081 19.9593 8.61704 19.4979 7.50323C19.0366 6.38942 18.3603 5.37739 17.5079 4.52492C16.6554 3.67244 15.6434 2.99623 14.5296 2.53487C13.4158 2.07352 12.222 1.83606 11.0164 1.83606ZM11.0164 18.3606C9.56384 18.3606 8.1439 17.9299 6.93615 17.1229C5.72839 16.3159 4.78706 15.1689 4.23119 13.8269C3.67532 12.4849 3.52988 11.0082 3.81326 9.58359C4.09664 8.15895 4.79611 6.85032 5.82322 5.82321C6.85033 4.7961 8.15896 4.09662 9.5836 3.81324C11.0083 3.52986 12.4849 3.6753 13.8269 4.23117C15.1689 4.78704 16.3159 5.72838 17.1229 6.93613C17.9299 8.14389 18.3607 9.56383 18.3607 11.0164C18.3607 12.9642 17.5869 14.8322 16.2096 16.2096C14.8323 17.5869 12.9642 18.3606 11.0164 18.3606Z" fill="#231F20"/>
<path d="M14.6885 10.0984H11.9344V7.34427C11.9344 7.10079 11.8377 6.86729 11.6655 6.69512C11.4934 6.52296 11.2599 6.42624 11.0164 6.42624C10.7729 6.42624 10.5394 6.52296 10.3672 6.69512C10.1951 6.86729 10.0984 7.10079 10.0984 7.34427V11.0164C10.0984 11.2599 10.1951 11.4934 10.3672 11.6656C10.5394 11.8377 10.7729 11.9344 11.0164 11.9344H14.6885C14.932 11.9344 15.1655 11.8377 15.3377 11.6656C15.5098 11.4934 15.6066 11.2599 15.6066 11.0164C15.6066 10.7729 15.5098 10.5394 15.3377 10.3673C15.1655 10.1951 14.932 10.0984 14.6885 10.0984Z" fill="#231F20"/>
</svg>
