<svg width="47" height="47" viewBox="0 0 47 47" fill="none" xmlns="http://www.w3.org/2000/svg">
<g filter="url(#filter0_d_135_29)">
<rect x="4" width="39" height="39" rx="10" fill="#FAF7D7"/>
</g>
<path fill-rule="evenodd" clip-rule="evenodd" d="M32.6084 9.57537C32.7134 9.72235 32.7883 9.88855 32.829 10.0645C32.8697 10.2404 32.8753 10.4227 32.8456 10.6008C32.8158 10.7789 32.7513 10.9494 32.6556 11.1026C32.56 11.2558 32.4351 11.3886 32.2881 11.4935L29.3992 13.5574C28.9549 13.8743 28.617 14.3184 28.4299 14.8311C28.2429 15.3438 28.2155 15.9012 28.3514 16.4297L32.9481 11.8331C33.0749 11.7018 33.2266 11.597 33.3944 11.525C33.5621 11.4529 33.7426 11.415 33.9251 11.4134C34.1077 11.4118 34.2888 11.4466 34.4578 11.5157C34.6267 11.5849 34.7803 11.687 34.9094 11.8161C35.0385 11.9452 35.1406 12.0987 35.2097 12.2677C35.2788 12.4367 35.3136 12.6177 35.312 12.8003C35.3105 12.9829 35.2725 13.1633 35.2005 13.3311C35.1284 13.4988 35.0236 13.6505 34.8923 13.7774L30.2957 18.374C30.8243 18.5099 31.3816 18.4825 31.8943 18.2955C32.4071 18.1085 32.8511 17.7706 33.1681 17.3262L35.2319 14.4374C35.4478 14.151 35.7669 13.9603 36.1213 13.9059C36.4757 13.8514 36.8374 13.9376 37.1292 14.146C37.421 14.3544 37.6198 14.6685 37.6833 15.0214C37.7468 15.3743 37.6699 15.7381 37.4691 16.0351L35.4066 18.9254C34.615 20.0333 33.4376 20.805 32.1059 21.089C30.7742 21.3729 29.3845 21.1485 28.2098 20.4599L25.0514 23.6182L30.7673 29.3341C31.0178 29.5934 31.1564 29.9408 31.1532 30.3013C31.1501 30.6618 31.0055 31.0067 30.7506 31.2616C30.4956 31.5166 30.1508 31.6612 29.7902 31.6643C29.4297 31.6674 29.0824 31.5288 28.8231 31.2784L23.1072 25.5625L17.3913 31.2784C17.2645 31.4097 17.1128 31.5144 16.945 31.5865C16.7772 31.6586 16.5968 31.6965 16.4142 31.6981C16.2317 31.6997 16.0506 31.6649 15.8816 31.5957C15.7127 31.5266 15.5591 31.4245 15.43 31.2954C15.3009 31.1663 15.1988 31.0128 15.1297 30.8438C15.0606 30.6748 15.0258 30.4938 15.0274 30.3112C15.0289 30.1286 15.0669 29.9482 15.1389 29.7804C15.211 29.6127 15.3157 29.461 15.4471 29.3341L21.1629 23.6182L18.9492 21.4045C18.3126 21.7482 17.5508 22.0095 16.7409 22.1044C15.9185 22.208 15.0833 22.1191 14.3011 21.8447C13.5189 21.5703 12.8111 21.1178 12.2337 20.5231C10.9563 19.2444 10.2262 17.637 10.0447 16.0929C9.86594 14.5735 10.2097 12.9455 11.3234 11.8331C12.4358 10.7194 14.0624 10.3756 15.5818 10.5544C17.1259 10.7372 18.7347 11.4674 20.0121 12.7447C20.6068 13.3222 21.0592 14.0299 21.3336 14.8121C21.608 15.5943 21.6969 16.4296 21.5933 17.252C21.5004 18.0252 21.2625 18.7739 20.8921 19.4589L23.1072 21.6726L26.2656 18.5156C25.5773 17.3411 25.3532 15.9517 25.6371 14.6203C25.921 13.2889 26.6925 12.1118 27.8001 11.3202L30.6903 9.25637C30.987 9.04433 31.3557 8.95881 31.7154 9.01864C32.0752 9.07846 32.3964 9.27872 32.6084 9.57537ZM12.7754 15.7711C12.8854 16.7061 13.3406 17.7415 14.1779 18.5775C14.8957 19.2952 15.6891 19.4575 16.4206 19.3722C17.2181 19.2787 17.8726 18.8937 18.1283 18.6394C18.3841 18.3836 18.7677 17.7291 18.8612 16.9316C18.9478 16.1987 18.7856 15.4054 18.0678 14.689C17.2291 13.8516 16.1951 13.3965 15.2601 13.2865C14.3003 13.1737 13.6114 13.4322 13.2663 13.7774C12.9226 14.1225 12.6627 14.81 12.7754 15.7711Z" fill="black"/>
<defs>
<filter id="filter0_d_135_29" x="0" y="0" width="47" height="47" filterUnits="userSpaceOnUse" color-interpolation-filters="sRGB">
<feFlood flood-opacity="0" result="BackgroundImageFix"/>
<feColorMatrix in="SourceAlpha" type="matrix" values="0 0 0 0 0 0 0 0 0 0 0 0 0 0 0 0 0 0 127 0" result="hardAlpha"/>
<feOffset dy="4"/>
<feGaussianBlur stdDeviation="2"/>
<feComposite in2="hardAlpha" operator="out"/>
<feColorMatrix type="matrix" values="0 0 0 0 0 0 0 0 0 0 0 0 0 0 0 0 0 0 0.25 0"/>
<feBlend mode="normal" in2="BackgroundImageFix" result="effect1_dropShadow_135_29"/>
<feBlend mode="normal" in="SourceGraphic" in2="effect1_dropShadow_135_29" result="shape"/>
</filter>
</defs>
</svg>
