<svg width="21" height="22" viewBox="0 0 21 22" fill="none" xmlns="http://www.w3.org/2000/svg">
<path d="M18.9336 11.0603C18.9284 11.0552 18.9216 11.05 18.9164 11.0448C18.9611 10.8503 18.9904 10.5646 18.8114 10.4011C18.5618 10.1721 18.0988 10.21 17.9043 10.42C17.8888 10.4372 17.875 10.4561 17.8612 10.4751C17.832 10.494 17.8061 10.5164 17.7838 10.5405C17.7493 10.5784 17.7235 10.6214 17.7029 10.6661C17.5893 10.6782 17.486 10.7264 17.4085 10.8107C17.3947 10.8262 17.3844 10.8434 17.3724 10.8606C17.3414 10.8813 17.3138 10.9037 17.288 10.9312C17.0935 11.1429 17.14 11.4993 17.3896 11.7299C17.5841 11.9072 17.844 11.9571 18.0402 11.8711C18.0609 11.8969 18.085 11.9227 18.1108 11.9468C18.3604 12.1757 18.7907 12.0897 18.9852 11.8779C18.999 11.8625 19.0111 11.847 19.0231 11.8315C19.0541 11.8091 19.0816 11.785 19.1057 11.7592C19.3002 11.544 19.1849 11.2893 18.9336 11.0603Z" fill="#346A34"/>
<path d="M17.0867 10.5302C17.0798 10.5336 17.0746 10.5388 17.0677 10.5439C16.8939 10.4596 16.6598 10.4785 16.4653 10.6111C16.195 10.797 16.1021 11.1326 16.2587 11.3616C16.3086 11.4356 16.3792 11.4889 16.4618 11.5216C16.4239 11.6576 16.4394 11.7988 16.5186 11.9124C16.6753 12.1413 17.0212 12.1757 17.2932 11.9916C17.5032 11.847 17.6065 11.6129 17.5686 11.4098C17.5979 11.396 17.6271 11.3788 17.6547 11.3598C17.9249 11.1739 18.0179 10.8383 17.8612 10.6093C17.7046 10.3787 17.3569 10.3443 17.0867 10.5302Z" fill="#568B3E"/>
<path d="M18.4379 10.3494C18.4327 10.3443 18.4258 10.3408 18.4189 10.3357C18.4482 10.1446 18.4413 9.87092 18.2571 9.72461C18.0007 9.51977 17.653 9.52838 17.4791 9.74526C17.424 9.81584 17.3139 9.95354 17.3052 10.0413C17.1641 10.0448 17.0333 10.1016 16.9472 10.21C16.7734 10.4269 16.8422 10.7677 17.0987 10.9726C17.2984 11.1309 17.5514 11.1602 17.7356 11.0655C17.758 11.0896 17.7821 11.112 17.8079 11.1326C18.0643 11.3375 18.4121 11.3289 18.5859 11.112C18.7632 10.8951 18.6961 10.5543 18.4379 10.3494Z" fill="url(#paint0_linear_8_532)"/>
<mask id="mask0_8_532" style="mask-type:luminance" maskUnits="userSpaceOnUse" x="0" y="0" width="21" height="22">
<path d="M0.0163879 0.704926H20.6721V21.3607H0.0163879V0.704926Z" fill="white"/>
</mask>
<g mask="url(#mask0_8_532)">
<path d="M10.3511 13.3273C16.0551 13.3273 20.679 11.7729 20.679 9.8554C20.679 7.93793 16.0551 6.38351 10.3511 6.38351C4.64721 6.38351 0.0232673 7.93793 0.0232673 9.8554C0.0232673 11.7729 4.64721 13.3273 10.3511 13.3273Z" fill="url(#paint1_radial_8_532)"/>
</g>
<mask id="mask1_8_532" style="mask-type:luminance" maskUnits="userSpaceOnUse" x="0" y="0" width="21" height="22">
<path d="M0.0163879 0.704926H20.6721V21.3607H0.0163879V0.704926Z" fill="white"/>
</mask>
<g mask="url(#mask1_8_532)">
<path d="M10.3442 21.3607C12.7209 21.3607 14.6475 20.7118 14.6475 19.9113C14.6475 19.1109 12.7209 18.462 10.3442 18.462C7.96761 18.462 6.04097 19.1109 6.04097 19.9113C6.04097 20.7118 7.96761 21.3607 10.3442 21.3607Z" fill="url(#paint2_radial_8_532)"/>
</g>
<mask id="mask2_8_532" style="mask-type:luminance" maskUnits="userSpaceOnUse" x="0" y="0" width="21" height="22">
<path d="M0.0163879 0.704926H20.6721V21.3607H0.0163879V0.704926Z" fill="white"/>
</mask>
<g mask="url(#mask2_8_532)">
<g opacity="0.2">
<path d="M10.3442 18.8079C12.9056 18.8079 14.3033 19.5378 14.3033 19.913C14.3033 20.0886 13.9865 20.3726 13.2774 20.6119C12.4993 20.8718 11.4579 21.0164 10.3442 21.0164C7.78294 21.0164 6.38523 20.2866 6.38523 19.9113C6.38523 19.7357 6.70195 19.4517 7.41113 19.2125C8.18916 18.9508 9.23056 18.8079 10.3442 18.8079ZM10.3442 18.4637C7.96712 18.4637 6.04097 19.1126 6.04097 19.913C6.04097 20.7134 7.96712 21.3607 10.3442 21.3607C12.7214 21.3607 14.6475 20.7117 14.6475 19.9113C14.6475 19.1109 12.7214 18.4637 10.3442 18.4637Z" fill="#434343"/>
</g>
</g>
<mask id="mask3_8_532" style="mask-type:luminance" maskUnits="userSpaceOnUse" x="0" y="0" width="21" height="22">
<path d="M0.0163879 0.704926H20.6721V21.3607H0.0163879V0.704926Z" fill="white"/>
</mask>
<g mask="url(#mask3_8_532)">
<mask id="mask4_8_532" style="mask-type:luminance" maskUnits="userSpaceOnUse" x="0" y="6" width="21" height="8">
<path d="M10.3511 13.3273C16.0551 13.3273 20.679 11.7729 20.679 9.8554C20.679 7.93793 16.0551 6.38351 10.3511 6.38351C4.64721 6.38351 0.0232673 7.93793 0.0232673 9.8554C0.0232673 11.7729 4.64721 13.3273 10.3511 13.3273Z" fill="white"/>
</mask>
<g mask="url(#mask4_8_532)">
<path d="M10.3511 14.1897C15.3953 14.1897 19.4844 12.8148 19.4844 11.1189C19.4844 9.42289 15.3953 8.04803 10.3511 8.04803C5.30696 8.04803 1.21785 9.42289 1.21785 11.1189C1.21785 12.8148 5.30696 14.1897 10.3511 14.1897Z" fill="url(#paint3_radial_8_532)"/>
</g>
</g>
<mask id="mask5_8_532" style="mask-type:luminance" maskUnits="userSpaceOnUse" x="0" y="0" width="21" height="22">
<path d="M0.0163879 0.704926H20.6721V21.3607H0.0163879V0.704926Z" fill="white"/>
</mask>
<g mask="url(#mask5_8_532)">
<mask id="mask6_8_532" style="mask-type:luminance" maskUnits="userSpaceOnUse" x="2" y="8" width="17" height="6">
<path d="M10.3511 13.6922C14.5796 13.6922 18.0075 12.5401 18.0075 11.1189C18.0075 9.69763 14.5796 8.5455 10.3511 8.5455C6.12263 8.5455 2.69475 9.69763 2.69475 11.1189C2.69475 12.5401 6.12263 13.6922 10.3511 13.6922Z" fill="white"/>
</mask>
<g mask="url(#mask6_8_532)">
<path d="M4.01153 9.44401C7.52989 8.78819 12.1843 9.95696 14.3928 12.9503C14.4892 13.0811 14.8128 12.9934 14.6957 12.8333C12.4029 9.72631 7.58842 8.50934 3.93235 9.19098C3.7103 9.23229 3.81875 9.48016 4.01153 9.44401Z" fill="#FECC81"/>
</g>
<mask id="mask7_8_532" style="mask-type:luminance" maskUnits="userSpaceOnUse" x="2" y="8" width="17" height="6">
<path d="M10.3511 13.6922C14.5796 13.6922 18.0075 12.5401 18.0075 11.1189C18.0075 9.69763 14.5796 8.5455 10.3511 8.5455C6.12263 8.5455 2.69475 9.69763 2.69475 11.1189C2.69475 12.5401 6.12263 13.6922 10.3511 13.6922Z" fill="white"/>
</mask>
<g mask="url(#mask7_8_532)">
<path d="M3.44007 9.90187C6.3663 9.30802 10.8452 10.1979 11.8779 13.4478C11.9279 13.6044 12.2687 13.57 12.2119 13.3944C11.1274 9.9845 6.43687 9.024 3.35917 9.65056C3.13884 9.69532 3.24556 9.94146 3.44007 9.90187Z" fill="#FECC81"/>
</g>
<mask id="mask8_8_532" style="mask-type:luminance" maskUnits="userSpaceOnUse" x="2" y="8" width="17" height="6">
<path d="M10.3511 13.6922C14.5796 13.6922 18.0075 12.5401 18.0075 11.1189C18.0075 9.69763 14.5796 8.5455 10.3511 8.5455C6.12263 8.5455 2.69475 9.69763 2.69475 11.1189C2.69475 12.5401 6.12263 13.6922 10.3511 13.6922Z" fill="white"/>
</mask>
<g mask="url(#mask8_8_532)">
<path d="M5.45918 9.04812C7.31647 8.71418 9.28738 8.90009 11.1137 9.33214C13.1517 9.8141 15.3051 10.7109 16.5513 12.477C16.6511 12.6181 16.9524 12.4512 16.8543 12.3134C15.6459 10.6025 13.6389 9.68673 11.6679 9.16345C9.69877 8.64017 7.52647 8.40779 5.50565 8.77099C5.33524 8.80025 5.23885 9.08771 5.45918 9.04812Z" fill="#FECC81"/>
</g>
<mask id="mask9_8_532" style="mask-type:luminance" maskUnits="userSpaceOnUse" x="2" y="8" width="17" height="6">
<path d="M10.3511 13.6922C14.5796 13.6922 18.0075 12.5401 18.0075 11.1189C18.0075 9.69763 14.5796 8.5455 10.3511 8.5455C6.12263 8.5455 2.69475 9.69763 2.69475 11.1189C2.69475 12.5401 6.12263 13.6922 10.3511 13.6922Z" fill="white"/>
</mask>
<g mask="url(#mask9_8_532)">
<path d="M6.43515 8.85878C10.1721 8.14615 15.2982 9.05673 17.8285 12.131C17.9456 12.2739 18.1969 12.0466 18.0953 11.921C15.4961 8.76066 10.2995 7.82082 6.45236 8.5541C6.28884 8.58509 6.22515 8.89837 6.43515 8.85878Z" fill="#FCB64E"/>
</g>
<mask id="mask10_8_532" style="mask-type:luminance" maskUnits="userSpaceOnUse" x="2" y="8" width="17" height="6">
<path d="M10.3511 13.6922C14.5796 13.6922 18.0075 12.5401 18.0075 11.1189C18.0075 9.69763 14.5796 8.5455 10.3511 8.5455C6.12263 8.5455 2.69475 9.69763 2.69475 11.1189C2.69475 12.5401 6.12263 13.6922 10.3511 13.6922Z" fill="white"/>
</mask>
<g mask="url(#mask10_8_532)">
<path d="M6.13219 9.64201C3.98572 9.67643 1.93047 11.2893 1.89777 13.5132C1.89433 13.7284 2.19039 13.6079 2.19383 13.4409C2.22482 11.415 4.09933 9.98455 6.04441 9.95356C6.20449 9.95184 6.33015 9.64028 6.13219 9.64201Z" fill="#FECC81"/>
</g>
<mask id="mask11_8_532" style="mask-type:luminance" maskUnits="userSpaceOnUse" x="2" y="8" width="17" height="6">
<path d="M10.3511 13.6922C14.5796 13.6922 18.0075 12.5401 18.0075 11.1189C18.0075 9.69763 14.5796 8.5455 10.3511 8.5455C6.12263 8.5455 2.69475 9.69763 2.69475 11.1189C2.69475 12.5401 6.12263 13.6922 10.3511 13.6922Z" fill="white"/>
</mask>
<g mask="url(#mask11_8_532)">
<path d="M8.04631 9.85196C6.08918 10.0895 2.73434 11.6301 2.84623 14.002C2.85656 14.2172 3.14918 14.0984 3.14229 13.9297C3.03901 11.7609 6.24754 10.3718 8.03254 10.1566C8.19778 10.136 8.25803 9.82614 8.04631 9.85196Z" fill="#FECC81"/>
</g>
<mask id="mask12_8_532" style="mask-type:luminance" maskUnits="userSpaceOnUse" x="2" y="8" width="17" height="6">
<path d="M10.3511 13.6922C14.5796 13.6922 18.0075 12.5401 18.0075 11.1189C18.0075 9.69763 14.5796 8.5455 10.3511 8.5455C6.12263 8.5455 2.69475 9.69763 2.69475 11.1189C2.69475 12.5401 6.12263 13.6922 10.3511 13.6922Z" fill="white"/>
</mask>
<g mask="url(#mask12_8_532)">
<path d="M9.28048 10.6575C7.27515 10.6851 4.0236 12.2893 4.1372 14.6441C4.14753 14.8593 4.44015 14.7405 4.43327 14.5718C4.32999 12.4374 7.37155 10.9932 9.19269 10.9691C9.3545 10.9674 9.47843 10.6558 9.28048 10.6575Z" fill="#FECC81"/>
</g>
<mask id="mask13_8_532" style="mask-type:luminance" maskUnits="userSpaceOnUse" x="2" y="8" width="17" height="6">
<path d="M10.3511 13.6922C14.5796 13.6922 18.0075 12.5401 18.0075 11.1189C18.0075 9.69763 14.5796 8.5455 10.3511 8.5455C6.12263 8.5455 2.69475 9.69763 2.69475 11.1189C2.69475 12.5401 6.12263 13.6922 10.3511 13.6922Z" fill="white"/>
</mask>
<g mask="url(#mask13_8_532)">
<path d="M10.2031 11.4821C8.27352 11.7127 5.24573 13.1121 5.36106 15.429C5.37139 15.6442 5.66573 15.5254 5.65712 15.3567C5.54868 13.2292 8.42499 11.9967 10.1893 11.785C10.3546 11.7661 10.4148 11.4562 10.2031 11.4821Z" fill="#FCB64E"/>
</g>
<mask id="mask14_8_532" style="mask-type:luminance" maskUnits="userSpaceOnUse" x="2" y="8" width="17" height="6">
<path d="M10.3511 13.6922C14.5796 13.6922 18.0075 12.5401 18.0075 11.1189C18.0075 9.69763 14.5796 8.5455 10.3511 8.5455C6.12263 8.5455 2.69475 9.69763 2.69475 11.1189C2.69475 12.5401 6.12263 13.6922 10.3511 13.6922Z" fill="white"/>
</mask>
<g mask="url(#mask14_8_532)">
<path d="M11.1274 12.2756C9.19784 12.5063 6.17006 13.9057 6.28538 16.2226C6.29571 16.4377 6.59006 16.319 6.58145 16.1503C6.47473 14.0227 9.35104 12.7903 11.1154 12.5786C11.2806 12.5596 11.3409 12.2498 11.1274 12.2756Z" fill="#FCB64E"/>
</g>
</g>
<mask id="mask15_8_532" style="mask-type:luminance" maskUnits="userSpaceOnUse" x="0" y="0" width="21" height="22">
<path d="M0.0163879 0.704926H20.6721V21.3607H0.0163879V0.704926Z" fill="white"/>
</mask>
<g mask="url(#mask15_8_532)">
<path d="M1.2041 11.0982C1.09566 10.7849 1.1714 10.4906 1.1714 10.4906C1.1714 10.4906 1.74632 9.78485 3.00804 9.66608C4.01501 9.57141 5.74837 9.75042 6.1873 10.451C6.28369 10.6042 6.16837 11.1447 6.05476 11.2531C5.22165 12.038 4.62435 12.2945 3.0855 12.2515C1.7773 12.2153 1.50878 11.9795 1.2041 11.0982Z" fill="#CDA997"/>
</g>
<mask id="mask16_8_532" style="mask-type:luminance" maskUnits="userSpaceOnUse" x="0" y="0" width="21" height="22">
<path d="M0.0163879 0.704926H20.6721V21.3607H0.0163879V0.704926Z" fill="white"/>
</mask>
<g mask="url(#mask16_8_532)">
<path d="M1.16622 10.5715C1.02851 9.97417 1.84786 9.44401 3.0786 9.38032C4.30933 9.31663 6.13737 9.7504 6.16835 10.3563C6.19933 10.9622 4.44188 11.5974 3.21802 11.5664C1.91499 11.5337 1.29188 11.112 1.16622 10.5715Z" fill="url(#paint4_radial_8_532)"/>
<path d="M1.95974 10.4751C1.9408 10.1033 2.37802 9.78312 3.13195 9.74353C3.88589 9.70394 4.56408 9.93115 4.58302 10.303C4.60195 10.6748 3.97367 11.0448 3.21802 11.0844C2.46236 11.124 1.97867 10.8469 1.95974 10.4751Z" fill="url(#paint5_radial_8_532)"/>
</g>
<mask id="mask17_8_532" style="mask-type:luminance" maskUnits="userSpaceOnUse" x="0" y="0" width="21" height="22">
<path d="M0.0163879 0.704926H20.6721V21.3607H0.0163879V0.704926Z" fill="white"/>
</mask>
<g mask="url(#mask17_8_532)">
<path d="M14.8558 8.09452C17.7992 9.18927 14.2206 10.9571 11.8917 10.9037C10.4372 10.871 9.27186 10.5543 9.81063 9.7969C10.4062 8.96206 13.5941 7.62632 14.8558 8.09452Z" fill="url(#paint6_radial_8_532)"/>
<path d="M14.8403 7.931C17.7838 9.02575 14.2052 10.7935 11.8762 10.7402C10.4217 10.7075 9.2564 10.3908 9.79517 9.63338C10.389 8.79682 13.5786 7.46108 14.8403 7.931Z" fill="url(#paint7_radial_8_532)"/>
<path d="M14.811 8.07733C17.4842 9.07224 14.0898 10.6214 11.9726 10.5732C10.6506 10.544 9.56965 10.334 10.0585 9.64544C10.599 8.88634 13.6646 7.65044 14.811 8.07733Z" fill="url(#paint8_linear_8_532)"/>
</g>
<mask id="mask18_8_532" style="mask-type:luminance" maskUnits="userSpaceOnUse" x="0" y="0" width="21" height="22">
<path d="M0.0163879 0.704926H20.6721V21.3607H0.0163879V0.704926Z" fill="white"/>
</mask>
<g mask="url(#mask18_8_532)">
<path d="M17.0488 9.1342C20.037 10.1016 16.5375 12.0208 14.2069 12.0673C12.7524 12.0966 11.575 11.8298 12.0811 11.05C12.6405 10.1911 15.7681 8.71937 17.0488 9.1342Z" fill="url(#paint9_radial_8_532)"/>
<path d="M17.0264 8.97066C20.0146 9.93804 16.5152 11.8573 14.1845 11.9038C12.73 11.933 11.5526 11.6662 12.0587 10.8865C12.6164 10.0275 15.7457 8.55582 17.0264 8.97066Z" fill="url(#paint10_radial_8_532)"/>
<path d="M17.0023 9.1187C19.7151 9.99657 16.3895 11.6921 14.2723 11.7334C12.9503 11.7592 11.8607 11.5974 12.3203 10.8882C12.8298 10.1067 15.8404 8.74174 17.0023 9.1187Z" fill="url(#paint11_linear_8_532)"/>
</g>
<mask id="mask19_8_532" style="mask-type:luminance" maskUnits="userSpaceOnUse" x="0" y="0" width="21" height="22">
<path d="M0.0163879 0.704926H20.6721V21.3607H0.0163879V0.704926Z" fill="white"/>
</mask>
<g mask="url(#mask19_8_532)">
<path d="M18.326 9.95007C21.3623 10.7522 17.9731 12.8608 15.6493 13.0347C14.1983 13.1431 13.0071 12.9434 13.4701 12.1361C13.9814 11.2462 17.0246 9.60581 18.326 9.95007Z" fill="url(#paint12_radial_8_532)"/>
<path d="M18.2933 9.78652C21.3297 10.5887 17.9404 12.6973 15.6167 12.8711C14.1656 12.9796 12.9745 12.7799 13.4375 11.9726C13.9487 11.0844 16.992 9.44398 18.2933 9.78652Z" fill="url(#paint13_radial_8_532)"/>
<path d="M18.2778 9.93629C21.0353 10.6644 17.8078 12.5389 15.6958 12.6973C14.3773 12.7971 13.2808 12.6938 13.7008 11.9606C14.1656 11.1515 17.0952 9.62301 18.2778 9.93629Z" fill="url(#paint14_linear_8_532)"/>
</g>
<mask id="mask20_8_532" style="mask-type:luminance" maskUnits="userSpaceOnUse" x="0" y="0" width="21" height="22">
<path d="M0.0163879 0.704926H20.6721V21.3607H0.0163879V0.704926Z" fill="white"/>
</mask>
<g mask="url(#mask20_8_532)">
<path d="M16.2225 8.45773C19.2589 9.25986 15.8697 11.3685 13.5459 11.5423C12.0948 11.6508 10.9037 11.4511 11.3667 10.6438C11.878 9.7556 14.9212 8.11519 16.2225 8.45773Z" fill="url(#paint15_radial_8_532)"/>
<path d="M16.1916 8.29589C19.228 9.09802 15.8387 11.2066 13.5149 11.3805C12.0639 11.4889 10.8727 11.2893 11.3357 10.482C11.847 9.59376 14.8903 7.95163 16.1916 8.29589Z" fill="url(#paint16_radial_8_532)"/>
<path d="M16.1761 8.44392C18.9336 9.17204 15.7062 11.0465 13.5941 11.2049C12.2756 11.3047 11.1791 11.2015 11.5991 10.4682C12.0621 9.66089 14.9935 8.13237 16.1761 8.44392Z" fill="url(#paint17_linear_8_532)"/>
</g>
<mask id="mask21_8_532" style="mask-type:luminance" maskUnits="userSpaceOnUse" x="0" y="0" width="21" height="22">
<path d="M0.0163879 0.704926H20.6721V21.3607H0.0163879V0.704926Z" fill="white"/>
</mask>
<g mask="url(#mask21_8_532)">
<path opacity="0.5" d="M17.3913 9.26844C17.3913 9.26844 21.7359 10.7161 18.3828 12.0897C16.2638 12.9572 13.6939 14.0709 7.17704 13.4237C5.8413 13.2911 2.37458 13.0811 3.47967 12.0518C4.58475 11.0225 9.1204 9.3459 10.074 9.23058C10.7178 9.15312 10.1377 9.72976 10.1876 9.99312C10.2788 10.4734 10.599 10.6937 11.5595 10.4131C13.7697 9.7659 12.7438 10.5801 13.885 10.6421C16.7424 10.7935 17.3913 9.26844 17.3913 9.26844Z" fill="#F9A01B"/>
</g>
<mask id="mask22_8_532" style="mask-type:luminance" maskUnits="userSpaceOnUse" x="0" y="0" width="21" height="22">
<path d="M0.0163879 0.704926H20.6721V21.3607H0.0163879V0.704926Z" fill="white"/>
</mask>
<g mask="url(#mask22_8_532)">
<path d="M18.4534 9.5542C21.3056 10.8676 17.6048 12.3599 15.2844 12.131C13.8368 11.9881 12.699 11.5854 13.2929 10.871C13.9504 10.0826 17.2313 8.99134 18.4534 9.5542Z" fill="url(#paint18_radial_8_532)"/>
<path d="M18.4499 9.38895C21.3021 10.7023 17.6013 12.1947 15.281 11.9658C13.8334 11.8229 12.6956 11.4201 13.2894 10.7058C13.947 9.91739 17.2278 8.82608 18.4499 9.38895Z" fill="url(#paint19_radial_8_532)"/>
<path d="M18.4103 9.53181C21.0009 10.7247 17.498 12.0139 15.3912 11.8057C14.0761 11.6766 13.0123 11.3857 13.5528 10.735C14.1484 10.0207 17.2984 9.02058 18.4103 9.53181Z" fill="url(#paint20_linear_8_532)"/>
</g>
<mask id="mask23_8_532" style="mask-type:luminance" maskUnits="userSpaceOnUse" x="0" y="0" width="21" height="22">
<path d="M0.0163879 0.704926H20.6721V21.3607H0.0163879V0.704926Z" fill="white"/>
</mask>
<g mask="url(#mask23_8_532)">
<path d="M1.87367 12.069C1.72392 11.2617 2.53466 10.5629 3.76539 10.4992C4.99441 10.4355 6.83449 11.05 6.8758 11.8659C6.91884 12.6818 5.1717 13.508 3.94613 13.4443C2.64138 13.3755 2.00793 12.7971 1.87367 12.069Z" fill="url(#paint21_radial_8_532)"/>
<path d="M2.66546 11.952C2.63964 11.4511 3.07169 11.0276 3.82562 10.988C4.57956 10.9484 5.26119 11.2669 5.28701 11.7678C5.31283 12.2687 4.68972 12.7558 3.93579 12.7954C3.18185 12.835 2.69128 12.4529 2.66546 11.952Z" fill="url(#paint22_radial_8_532)"/>
</g>
<mask id="mask24_8_532" style="mask-type:luminance" maskUnits="userSpaceOnUse" x="0" y="0" width="21" height="22">
<path d="M0.0163879 0.704926H20.6721V21.3607H0.0163879V0.704926Z" fill="white"/>
</mask>
<g mask="url(#mask24_8_532)">
<path d="M9.5903 13.045C9.55071 13.842 8.45768 14.4359 7.14776 14.3722C5.83785 14.3085 4.80678 13.6114 4.84465 12.8144C4.88424 12.0174 5.97727 11.4236 7.28719 11.4873C8.59711 11.5509 9.62989 12.2498 9.5903 13.045Z" fill="url(#paint23_radial_8_532)"/>
</g>
<mask id="mask25_8_532" style="mask-type:luminance" maskUnits="userSpaceOnUse" x="0" y="0" width="21" height="22">
<path d="M0.0163879 0.704926H20.6721V21.3607H0.0163879V0.704926Z" fill="white"/>
</mask>
<g mask="url(#mask25_8_532)">
<path d="M15.0486 11.4666C15.04 11.4717 15.0331 11.4786 15.0245 11.4855C14.7887 11.3719 14.4737 11.396 14.212 11.5767C13.8454 11.8263 13.7215 12.2807 13.9315 12.5889C14.0003 12.6887 14.095 12.761 14.2052 12.804C14.1552 12.9882 14.1759 13.1775 14.2809 13.3325C14.4926 13.6406 14.9608 13.6888 15.3257 13.4392C15.6097 13.2447 15.7474 12.9297 15.6975 12.6525C15.7371 12.6336 15.7767 12.6112 15.8146 12.5854C16.1812 12.3358 16.3052 11.8814 16.0952 11.5733C15.8817 11.2634 15.4152 11.217 15.0486 11.4666Z" fill="#568B3E"/>
<path d="M17.4705 11.9279C17.4602 11.9244 17.4516 11.9227 17.4412 11.9193C17.3948 11.6628 17.1882 11.4235 16.887 11.3168C16.4687 11.1688 16.0298 11.3357 15.9041 11.6886C15.8645 11.8022 15.8628 11.9227 15.8921 12.0363C15.7148 12.1034 15.5736 12.2343 15.5116 12.4098C15.3877 12.7627 15.6253 13.1689 16.0435 13.3152C16.3671 13.4289 16.7045 13.3548 16.8973 13.15C16.9369 13.1707 16.9765 13.1896 17.0212 13.2034C17.4395 13.3514 17.8785 13.1844 18.0041 12.8316C18.1263 12.4804 17.8888 12.0759 17.4705 11.9279Z" fill="#346A34"/>
<path d="M16.3912 10.7608C16.3809 10.7574 16.3723 10.7557 16.362 10.7539C16.3052 10.4992 16.2277 10.2565 15.923 10.1635C15.4996 10.0344 15.0658 10.2186 14.9574 10.5766C14.9212 10.692 14.7852 10.8228 14.8197 10.9364C14.6441 11.0104 14.5098 11.1464 14.4547 11.3254C14.3446 11.6834 14.5993 12.0793 15.0245 12.2084C15.3533 12.31 15.6872 12.2205 15.8714 12.0088C15.911 12.0277 15.9523 12.0449 15.997 12.057C16.4205 12.1861 16.8543 12.0019 16.9627 11.6439C17.0694 11.2858 16.8147 10.8916 16.3912 10.7608Z" fill="url(#paint24_radial_8_532)"/>
</g>
<mask id="mask26_8_532" style="mask-type:luminance" maskUnits="userSpaceOnUse" x="0" y="0" width="21" height="22">
<path d="M0.0163879 0.704926H20.6721V21.3607H0.0163879V0.704926Z" fill="white"/>
</mask>
<g mask="url(#mask26_8_532)">
<path d="M18.0678 10.3253C18.0592 10.3305 18.0523 10.3374 18.0437 10.3443C17.8079 10.2307 17.4929 10.2548 17.2312 10.4355C16.8646 10.6851 16.7406 11.1395 16.9506 11.4476C17.0195 11.5475 17.1142 11.6198 17.2243 11.6628C17.1744 11.847 17.1951 12.0363 17.3001 12.1912C17.5118 12.4994 17.98 12.5476 18.3449 12.298C18.6289 12.1035 18.7666 11.7885 18.7167 11.5113C18.7563 11.4924 18.7959 11.47 18.8338 11.4442C19.2004 11.1946 19.3243 10.7402 19.1143 10.4321C18.9009 10.1222 18.4344 10.074 18.0678 10.3253Z" fill="#568B3E"/>
<path d="M19.4552 10.241C19.4448 10.2444 19.4362 10.2478 19.4259 10.2513C19.2331 10.0757 18.9233 10.0103 18.6203 10.1084C18.1986 10.2444 17.9507 10.6455 18.0661 11.0001C18.1039 11.1154 18.1745 11.2118 18.2675 11.2841C18.1676 11.4459 18.1332 11.6352 18.1917 11.8125C18.307 12.1688 18.7425 12.3461 19.1643 12.2084C19.4913 12.1017 19.7134 11.8383 19.7426 11.5595C19.7857 11.5526 19.8304 11.5423 19.8734 11.5285C20.2952 11.3925 20.543 10.9915 20.4277 10.6369C20.3124 10.2806 19.8769 10.1033 19.4552 10.241Z" fill="#346A34"/>
<path d="M19.4104 9.61962C19.4001 9.61617 19.3915 9.61445 19.3811 9.61273C19.3243 9.35798 19.2469 9.11527 18.9422 9.02232C18.5188 8.89322 18.085 9.0774 17.9765 9.43544C17.9404 9.55076 17.8044 9.68158 17.8388 9.79519C17.6633 9.86921 17.529 10.0052 17.4739 10.1842C17.3638 10.5422 17.6185 10.9381 18.0437 11.0672C18.3725 11.1688 18.7064 11.0793 18.8906 10.8676C18.9302 10.8865 18.9715 10.9037 19.0162 10.9158C19.4397 11.0449 19.8734 10.8607 19.9819 10.5026C20.0886 10.1446 19.8338 9.75044 19.4104 9.61962Z" fill="url(#paint25_radial_8_532)"/>
</g>
<mask id="mask27_8_532" style="mask-type:luminance" maskUnits="userSpaceOnUse" x="0" y="0" width="21" height="22">
<path d="M0.0163879 0.704926H20.6721V21.3607H0.0163879V0.704926Z" fill="white"/>
</mask>
<g mask="url(#mask27_8_532)">
<path d="M14.1466 12.7059C14.1656 13.5029 13.119 14.1742 11.8074 14.2069C10.4957 14.2396 9.41646 13.6182 9.39753 12.8212C9.37859 12.0243 10.4251 11.353 11.7368 11.3203C13.0484 11.2893 14.1277 11.909 14.1466 12.7059Z" fill="url(#paint26_radial_8_532)"/>
<path d="M12.8539 12.3204L12.0019 12.5114C11.9795 12.5131 11.9623 12.5303 11.9571 12.551L11.7833 13.2757C11.7712 13.3256 11.7024 13.329 11.6852 13.2808L11.4029 12.5235C11.396 12.5063 11.3805 12.4925 11.3616 12.4908L10.556 12.3892C10.4975 12.3823 10.4957 12.298 10.5525 12.2876L11.3908 12.131C11.4097 12.1276 11.4252 12.1121 11.4304 12.0931L11.5681 11.575C11.5802 11.5285 11.6421 11.5234 11.6645 11.5647L11.9399 12.1138C11.9468 12.1293 11.9606 12.1396 11.9778 12.1413L12.8608 12.174C12.9434 12.1844 12.94 12.31 12.8539 12.3204Z" fill="url(#paint27_radial_8_532)"/>
</g>
<mask id="mask28_8_532" style="mask-type:luminance" maskUnits="userSpaceOnUse" x="0" y="0" width="21" height="22">
<path d="M0.0163879 0.704926H20.6721V21.3607H0.0163879V0.704926Z" fill="white"/>
</mask>
<g mask="url(#mask28_8_532)">
<path d="M8.32863 12.5665L7.46453 12.6939C7.44215 12.6956 7.42322 12.7094 7.41805 12.73L7.19084 13.4392C7.17535 13.4874 7.10649 13.4874 7.09272 13.4375L6.86551 12.6612C6.86035 12.6422 6.84486 12.6285 6.82592 12.625L6.03067 12.4649C5.97215 12.4529 5.97731 12.3703 6.03584 12.3634L6.88272 12.267C6.90166 12.2653 6.91887 12.2515 6.92576 12.2326L7.10133 11.7248C7.11682 11.68 7.18051 11.6783 7.19772 11.7213L7.43182 12.2876C7.43871 12.3031 7.45076 12.3135 7.46797 12.3186L8.34584 12.415C8.42846 12.4391 8.41641 12.563 8.32863 12.5665Z" fill="url(#paint28_radial_8_532)"/>
</g>
<mask id="mask29_8_532" style="mask-type:luminance" maskUnits="userSpaceOnUse" x="0" y="0" width="21" height="22">
<path d="M0.0163879 0.704926H20.6721V21.3607H0.0163879V0.704926Z" fill="white"/>
</mask>
<g mask="url(#mask29_8_532)">
<path d="M10.3511 13.3273C5.04089 13.3273 0.670481 11.9795 0.0903992 10.2479C0.0697435 10.3219 0.061137 10.4011 0.0663009 10.482C0.214334 12.4856 1.36761 20.3847 10.3718 20.3847C19.3777 20.3847 20.531 12.4839 20.6773 10.482C20.6859 10.377 20.6687 10.2737 20.6308 10.179C20.1488 11.9451 15.732 13.3273 10.3511 13.3273Z" fill="url(#paint29_radial_8_532)"/>
<path d="M13.8127 15.596C14.0028 15.596 14.157 15.4419 14.157 15.2517C14.157 15.0616 14.0028 14.9075 13.8127 14.9075C13.6226 14.9075 13.4684 15.0616 13.4684 15.2517C13.4684 15.4419 13.6226 15.596 13.8127 15.596Z" fill="#A93023"/>
<path d="M6.89989 15.5684C7.09002 15.5684 7.24415 15.4143 7.24415 15.2242C7.24415 15.034 7.09002 14.8799 6.89989 14.8799C6.70976 14.8799 6.55563 15.034 6.55563 15.2242C6.55563 15.4143 6.70976 15.5684 6.89989 15.5684Z" fill="#BE3A26"/>
<path d="M10.3425 15.7544C10.5327 15.7544 10.6868 15.6002 10.6868 15.4101C10.6868 15.22 10.5327 15.0658 10.3425 15.0658C10.1524 15.0658 9.99827 15.22 9.99827 15.4101C9.99827 15.6002 10.1524 15.7544 10.3425 15.7544Z" fill="#BE3A26"/>
<path d="M16.7045 15.1295C16.8471 15.1295 16.9627 14.9754 16.9627 14.7852C16.9627 14.5951 16.8471 14.441 16.7045 14.441C16.5619 14.441 16.4463 14.5951 16.4463 14.7852C16.4463 14.9754 16.5619 15.1295 16.7045 15.1295Z" fill="#8D372A"/>
<path d="M3.94956 15.1019C4.09216 15.1019 4.20776 14.9478 4.20776 14.7577C4.20776 14.5676 4.09216 14.4134 3.94956 14.4134C3.80696 14.4134 3.69136 14.5676 3.69136 14.7577C3.69136 14.9478 3.80696 15.1019 3.94956 15.1019Z" fill="#BE3A26"/>
<path d="M19.0885 14.3343C19.1836 14.3343 19.2606 14.1801 19.2606 13.99C19.2606 13.7999 19.1836 13.6458 19.0885 13.6458C18.9934 13.6458 18.9164 13.7999 18.9164 13.99C18.9164 14.1801 18.9934 14.3343 19.0885 14.3343Z" fill="#8D372A"/>
<path d="M1.52427 14.3067C1.61934 14.3067 1.6964 14.1526 1.6964 13.9625C1.6964 13.7723 1.61934 13.6182 1.52427 13.6182C1.42921 13.6182 1.35214 13.7723 1.35214 13.9625C1.35214 14.1526 1.42921 14.3067 1.52427 14.3067Z" fill="#BE3A26"/>
</g>
<mask id="mask30_8_532" style="mask-type:luminance" maskUnits="userSpaceOnUse" x="0" y="0" width="21" height="22">
<path d="M0.0163879 0.704926H20.6721V21.3607H0.0163879V0.704926Z" fill="white"/>
</mask>
<g mask="url(#mask30_8_532)">
<mask id="mask31_8_532" style="mask-type:luminance" maskUnits="userSpaceOnUse" x="0" y="10" width="21" height="11">
<path d="M10.3511 13.3273C5.04089 13.3273 0.670481 11.9795 0.0903992 10.2479C0.0697435 10.3219 0.061137 10.4011 0.0663009 10.482C0.214334 12.4856 1.36761 20.3847 10.3718 20.3847C19.3777 20.3847 20.531 12.4839 20.6773 10.482C20.6859 10.377 20.6687 10.2737 20.6308 10.179C20.1488 11.9451 15.732 13.3273 10.3511 13.3273Z" fill="white"/>
</mask>
<g mask="url(#mask31_8_532)">
<path d="M0.27458 12.5097C0.27458 12.5097 2.68442 14.7474 10.432 14.7474C18.1797 14.7474 20.5293 12.5097 20.5293 12.5097" stroke="#BE3A26" stroke-width="2.0616" stroke-miterlimit="10" stroke-linecap="round" stroke-linejoin="round"/>
</g>
<mask id="mask32_8_532" style="mask-type:luminance" maskUnits="userSpaceOnUse" x="0" y="10" width="21" height="11">
<path d="M10.3511 13.3273C5.04089 13.3273 0.670481 11.9795 0.0903992 10.2479C0.0697435 10.3219 0.061137 10.4011 0.0663009 10.482C0.214334 12.4856 1.36761 20.3847 10.3718 20.3847C19.3777 20.3847 20.531 12.4839 20.6773 10.482C20.6859 10.377 20.6687 10.2737 20.6308 10.179C20.1488 11.9451 15.732 13.3273 10.3511 13.3273Z" fill="white"/>
</mask>
<g mask="url(#mask32_8_532)">
<path d="M0.27458 13.8007C0.27458 13.8007 2.68442 16.0384 10.432 16.0384C18.1797 16.0384 20.5293 13.8007 20.5293 13.8007" stroke="#BE3A26" stroke-width="2.0616" stroke-miterlimit="10" stroke-linecap="round" stroke-linejoin="round"/>
</g>
</g>
<mask id="mask33_8_532" style="mask-type:luminance" maskUnits="userSpaceOnUse" x="0" y="0" width="21" height="22">
<path d="M0.0163879 0.704926H20.6721V21.3607H0.0163879V0.704926Z" fill="white"/>
</mask>
<g mask="url(#mask33_8_532)">
<path d="M10.3305 6.57114C4.6381 6.57114 0.0232673 8.12204 0.0232673 10.0361C0.0232673 11.9502 4.6381 13.5011 10.3305 13.5011C16.0229 13.5011 20.6377 11.9502 20.6377 10.0361C20.636 8.12204 16.0211 6.57114 10.3305 6.57114ZM10.3305 13.0261C4.95138 13.0261 0.5913 11.6456 0.5913 9.94318C0.5913 8.24081 4.95138 6.86032 10.3305 6.86032C15.7096 6.86032 20.0697 8.24081 20.0697 9.94318C20.0697 11.6456 15.7096 13.0261 10.3305 13.0261Z" fill="url(#paint30_radial_8_532)"/>
</g>
<mask id="mask34_8_532" style="mask-type:luminance" maskUnits="userSpaceOnUse" x="0" y="0" width="21" height="22">
<path d="M0.0163879 0.704926H20.6721V21.3607H0.0163879V0.704926Z" fill="white"/>
</mask>
<g mask="url(#mask34_8_532)">
<g opacity="0.2">
<path d="M10.3511 6.89991C13.0553 6.89991 15.5908 7.25106 17.4894 7.88966C19.1384 8.44392 20.1626 9.19786 20.1626 9.8554C20.1626 9.88466 20.1626 9.93802 20.1643 9.99999C20.1661 10.1153 20.1678 10.3838 20.1643 10.4441C20.0955 11.3753 19.7874 13.7697 18.4138 15.9058C16.7217 18.536 14.0158 19.87 10.3735 19.87C6.73122 19.87 4.02532 18.536 2.33327 15.9058C0.957939 13.7697 0.649825 11.3753 0.580972 10.4441C0.579251 10.4269 0.57753 10.3942 0.574087 10.3511C0.56548 10.2393 0.539661 9.93974 0.539661 9.8554C0.539661 9.19786 1.56384 8.44392 3.21286 7.88966C5.11146 7.25278 7.64696 6.89991 10.3511 6.89991ZM10.3511 6.38351C4.64671 6.38351 0.0232673 7.93786 0.0232673 9.8554C0.0232673 9.98794 0.0611361 10.4011 0.0663001 10.482C0.214333 12.4856 1.36761 20.3847 10.3718 20.3847C19.3777 20.3847 20.531 12.4838 20.6773 10.482C20.6859 10.377 20.6773 9.96556 20.6773 9.8554C20.679 7.93786 16.0556 6.38351 10.3511 6.38351Z" fill="#434343"/>
</g>
</g>
<mask id="mask35_8_532" style="mask-type:luminance" maskUnits="userSpaceOnUse" x="0" y="0" width="21" height="22">
<path d="M0.0163879 0.704926H20.6721V21.3607H0.0163879V0.704926Z" fill="white"/>
</mask>
<g mask="url(#mask35_8_532)">
<path d="M21.3727 2.13535L7.42663 2.19904C7.14089 2.20076 6.90679 1.97183 6.90163 1.68609C6.89646 1.40035 7.12368 1.16281 7.40941 1.1542L21.3486 0.758301L21.3727 2.13535Z" fill="url(#paint31_linear_8_532)"/>
</g>
<mask id="mask36_8_532" style="mask-type:luminance" maskUnits="userSpaceOnUse" x="0" y="0" width="21" height="22">
<path d="M0.0163879 0.704926H20.6721V21.3607H0.0163879V0.704926Z" fill="white"/>
</mask>
<g mask="url(#mask36_8_532)">
<g opacity="0.2">
<path d="M21.0095 1.11117L21.0215 1.79109L7.42317 1.85478C7.32678 1.85478 7.24588 1.7756 7.24416 1.6792C7.24244 1.58281 7.32162 1.50019 7.41801 1.49846L21.0095 1.11117ZM21.3469 0.758301L7.40768 1.1542C7.12194 1.16281 6.89473 1.40035 6.8999 1.68609C6.90506 1.97183 7.13744 2.19904 7.42317 2.19904H7.4249L21.371 2.13535L21.3469 0.758301Z" fill="#434343"/>
</g>
</g>
<mask id="mask37_8_532" style="mask-type:luminance" maskUnits="userSpaceOnUse" x="0" y="0" width="21" height="22">
<path d="M0.0163879 0.704926H20.6721V21.3607H0.0163879V0.704926Z" fill="white"/>
</mask>
<g mask="url(#mask37_8_532)">
<path d="M8.72277 1.03196C7.9981 0.804745 7.81564 1.39515 7.81564 2.21106C7.81564 5.92737 8.22359 8.44392 7.7726 11.2893C7.764 11.3392 8.11859 11.5337 8.40605 11.2325C8.90523 10.7109 8.54203 3.59499 8.54203 1.73597C8.54203 1.21442 8.90523 1.07843 8.90523 1.07843L8.72277 1.03196Z" fill="url(#paint32_linear_8_532)"/>
</g>
<mask id="mask38_8_532" style="mask-type:luminance" maskUnits="userSpaceOnUse" x="0" y="0" width="21" height="22">
<path d="M0.0163879 0.704926H20.6721V21.3607H0.0163879V0.704926Z" fill="white"/>
</mask>
<g mask="url(#mask38_8_532)">
<path d="M10.0792 0.971737C9.8227 1.27813 9.91049 1.99592 9.90016 2.35395C9.86918 3.36952 9.87779 4.38854 9.88639 5.40411C9.90188 7.18739 9.96557 8.96895 9.97246 10.7522C9.97418 11.0552 10.4751 10.933 10.4734 10.6455C10.4682 9.04469 10.4114 7.44559 10.3942 5.84477C10.3821 4.82231 10.3735 3.79813 10.3942 2.77395C10.4011 2.45207 10.3064 1.42788 10.4871 1.21272C10.7006 0.956245 10.2737 0.741081 10.0792 0.971737Z" fill="url(#paint33_linear_8_532)"/>
</g>
<mask id="mask39_8_532" style="mask-type:luminance" maskUnits="userSpaceOnUse" x="0" y="0" width="21" height="22">
<path d="M0.0163879 0.704926H20.6721V21.3607H0.0163879V0.704926Z" fill="white"/>
</mask>
<g mask="url(#mask39_8_532)">
<path d="M21.3607 3.26279L7.41459 3.20426C7.12886 3.20254 6.89476 3.43148 6.88959 3.71721C6.88443 4.00295 7.11164 4.24049 7.39738 4.2491L21.3366 4.63984L21.3607 3.26279Z" fill="url(#paint34_linear_8_532)"/>
</g>
<mask id="mask40_8_532" style="mask-type:luminance" maskUnits="userSpaceOnUse" x="0" y="0" width="21" height="22">
<path d="M0.0163879 0.704926H20.6721V21.3607H0.0163879V0.704926Z" fill="white"/>
</mask>
<g mask="url(#mask40_8_532)">
<g opacity="0.2">
<path d="M7.41114 3.54852L21.0095 3.60532L20.9975 4.28524L7.40598 3.90483C7.30786 3.90139 7.2304 3.82048 7.23213 3.72409C7.23385 3.6277 7.31303 3.54852 7.41114 3.54852ZM7.41114 3.20425C7.12713 3.20425 6.89303 3.43319 6.88786 3.7172C6.8827 4.00294 7.10991 4.24048 7.39565 4.24909L21.3348 4.63983L21.3589 3.26278L7.41286 3.20425H7.41114Z" fill="#434343"/>
</g>
</g>
<mask id="mask41_8_532" style="mask-type:luminance" maskUnits="userSpaceOnUse" x="0" y="0" width="21" height="22">
<path d="M0.0163879 0.704926H20.6721V21.3607H0.0163879V0.704926Z" fill="white"/>
</mask>
<g mask="url(#mask41_8_532)">
<path d="M10.4647 1.29359C10.6988 1.66367 10.63 2.33326 10.6386 2.74465C10.6592 3.7258 10.6231 4.71039 10.5887 5.68982C10.5233 7.58326 10.4097 9.48186 10.4406 11.377C10.4458 11.7247 11.0896 11.4855 11.0844 11.1653C11.05 9.09973 11.1911 7.03244 11.2514 4.97031C11.2772 4.10793 11.303 3.24211 11.2772 2.37801C11.2634 1.94596 11.3047 1.33662 11.062 0.952766C10.883 0.667028 10.2857 1.00957 10.4647 1.29359Z" fill="url(#paint35_linear_8_532)"/>
</g>
<mask id="mask42_8_532" style="mask-type:luminance" maskUnits="userSpaceOnUse" x="0" y="0" width="21" height="22">
<path d="M0.0163879 0.704926H20.6721V21.3607H0.0163879V0.704926Z" fill="white"/>
</mask>
<g mask="url(#mask42_8_532)">
<path d="M9.42509 0.942444C8.65394 1.19203 8.85878 4.18367 8.88116 5.72425C8.90353 7.27687 8.69009 9.6781 8.65394 11.2324C8.64878 11.4906 9.28394 11.4889 9.35624 11.2101C9.69706 9.89498 9.06362 1.38482 9.81067 1.26605C10.1429 1.21269 9.90189 0.921788 9.62821 0.966542L9.42509 0.942444Z" fill="url(#paint36_linear_8_532)"/>
</g>
<path d="M2.55877 7.09614C2.37631 7.28376 2.06648 7.08237 2.16459 6.83966C2.48476 6.04958 2.71197 4.99442 2.25582 4.02532C1.67746 2.79458 2.18869 2.0286 2.65861 1.62409C2.81697 1.4881 3.05623 1.60687 3.05451 1.81515C3.04935 2.25237 3.1991 3.01146 3.81533 4.30589C4.21295 5.13728 3.34369 6.28884 2.55877 7.09614Z" fill="#E1F3F7"/>
<path d="M5.62958 8.70386C5.44712 8.89149 5.13728 8.69009 5.2354 8.44739C5.55556 7.65731 5.78277 6.60214 5.32663 5.63304C4.74827 4.40231 5.2595 3.63632 5.72941 3.23181C5.88777 3.09583 6.12704 3.2146 6.12532 3.42288C6.12015 3.86009 6.26991 4.61919 6.88613 5.91362C7.28376 6.74501 6.4145 7.89485 5.62958 8.70386Z" fill="#E1F3F7"/>
<defs>
<linearGradient id="paint0_linear_8_532" x1="16.8543" y1="10.4288" x2="18.6857" y2="10.4288" gradientUnits="userSpaceOnUse">
<stop offset="0.225" stop-color="#8BC249"/>
<stop offset="0.9398" stop-color="#7CB342"/>
</linearGradient>
<radialGradient id="paint1_radial_8_532" cx="0" cy="0" r="1" gradientUnits="userSpaceOnUse" gradientTransform="translate(6.43274 9.45915) scale(13.3405)">
<stop offset="0.3451" stop-color="#F5F5F5"/>
<stop offset="0.8524" stop-color="#E0E0E0"/>
</radialGradient>
<radialGradient id="paint2_radial_8_532" cx="0" cy="0" r="1" gradientUnits="userSpaceOnUse" gradientTransform="translate(7.91376 20.7548) scale(3.21076)">
<stop stop-color="#BDBDBD"/>
<stop offset="0.884" stop-color="#9D9D9D"/>
</radialGradient>
<radialGradient id="paint3_radial_8_532" cx="0" cy="0" r="1" gradientUnits="userSpaceOnUse" gradientTransform="translate(10.4276 10.966) scale(9.48615 3.15984)">
<stop offset="0.0785" stop-color="#F78C1E"/>
<stop offset="0.9285" stop-color="#F9A01B"/>
</radialGradient>
<radialGradient id="paint4_radial_8_532" cx="0" cy="0" r="1" gradientUnits="userSpaceOnUse" gradientTransform="translate(2.91952 9.80176) rotate(9.92921) scale(4.17899 2.63098)">
<stop offset="0.4485" stop-color="#FFF3E1"/>
<stop offset="1" stop-color="#FFE0B2"/>
</radialGradient>
<radialGradient id="paint5_radial_8_532" cx="0" cy="0" r="1" gradientUnits="userSpaceOnUse" gradientTransform="translate(3.2292 10.478) rotate(9.92921) scale(1.19013 0.749275)">
<stop stop-color="#F36E21"/>
<stop offset="1" stop-color="#FAAA43"/>
</radialGradient>
<radialGradient id="paint6_radial_8_532" cx="0" cy="0" r="1" gradientUnits="userSpaceOnUse" gradientTransform="translate(12.0802 9.17925) rotate(-19.0256) scale(3.40537 1.78227)">
<stop offset="0.1407" stop-color="#733619"/>
<stop offset="0.9247" stop-color="#8D401E"/>
</radialGradient>
<radialGradient id="paint7_radial_8_532" cx="0" cy="0" r="1" gradientUnits="userSpaceOnUse" gradientTransform="translate(12.0641 9.01466) rotate(-19.0256) scale(3.40537 1.78227)">
<stop offset="0.3514" stop-color="#BB5B27"/>
<stop offset="1" stop-color="#8D401E"/>
</radialGradient>
<linearGradient id="paint8_linear_8_532" x1="14.2077" y1="7.34551" x2="12.2881" y2="10.3697" gradientUnits="userSpaceOnUse">
<stop offset="0.1326" stop-color="#C55833"/>
<stop offset="0.1631" stop-color="#CF6947"/>
<stop offset="0.1954" stop-color="#C65935"/>
<stop offset="0.4201" stop-color="#C55733"/>
<stop offset="0.4302" stop-color="#D67456"/>
<stop offset="0.4771" stop-color="#C3532E"/>
<stop offset="0.6515" stop-color="#C65A35"/>
<stop offset="0.7114" stop-color="#D67456"/>
<stop offset="0.7948" stop-color="#C55733"/>
<stop offset="0.9201" stop-color="#C55732"/>
<stop offset="0.9663" stop-color="#D06C4B"/>
<stop offset="1" stop-color="#C55732"/>
</linearGradient>
<radialGradient id="paint9_radial_8_532" cx="0" cy="0" r="1" gradientUnits="userSpaceOnUse" gradientTransform="translate(14.3236 10.3363) rotate(-21.4801) scale(3.4053 1.78245)">
<stop offset="0.1407" stop-color="#733619"/>
<stop offset="0.9247" stop-color="#8D401E"/>
</radialGradient>
<radialGradient id="paint10_radial_8_532" cx="0" cy="0" r="1" gradientUnits="userSpaceOnUse" gradientTransform="translate(14.3005 10.1725) rotate(-21.4801) scale(3.4053 1.78245)">
<stop offset="0.3514" stop-color="#BB5B27"/>
<stop offset="1" stop-color="#8D401E"/>
</radialGradient>
<linearGradient id="paint11_linear_8_532" x1="16.37" y1="8.41227" x2="14.5818" y2="11.516" gradientUnits="userSpaceOnUse">
<stop offset="0.1326" stop-color="#C55833"/>
<stop offset="0.1631" stop-color="#CF6947"/>
<stop offset="0.1954" stop-color="#C65935"/>
<stop offset="0.4201" stop-color="#C55733"/>
<stop offset="0.4302" stop-color="#D67456"/>
<stop offset="0.4771" stop-color="#C3532E"/>
<stop offset="0.6515" stop-color="#C65A35"/>
<stop offset="0.7114" stop-color="#D67456"/>
<stop offset="0.7948" stop-color="#C55733"/>
<stop offset="0.9201" stop-color="#C55732"/>
<stop offset="0.9663" stop-color="#D06C4B"/>
<stop offset="1" stop-color="#C55732"/>
</linearGradient>
<radialGradient id="paint12_radial_8_532" cx="0" cy="0" r="1" gradientUnits="userSpaceOnUse" gradientTransform="translate(15.6694 11.2988) rotate(-24.6251) scale(3.40544 1.78234)">
<stop offset="0.1407" stop-color="#733619"/>
<stop offset="0.9247" stop-color="#8D401E"/>
</radialGradient>
<radialGradient id="paint13_radial_8_532" cx="0" cy="0" r="1" gradientUnits="userSpaceOnUse" gradientTransform="translate(15.6374 11.1364) rotate(-24.6251) scale(3.40544 1.78234)">
<stop stop-color="#8D401E"/>
<stop offset="0.6486" stop-color="#BB5B27"/>
</radialGradient>
<linearGradient id="paint14_linear_8_532" x1="19.2469" y1="10.2527" x2="14.0998" y2="12.4702" gradientUnits="userSpaceOnUse">
<stop offset="0.1326" stop-color="#C55833"/>
<stop offset="0.1631" stop-color="#CF6947"/>
<stop offset="0.1954" stop-color="#C65935"/>
<stop offset="0.4201" stop-color="#C55733"/>
<stop offset="0.4302" stop-color="#D67456"/>
<stop offset="0.4771" stop-color="#C3532E"/>
<stop offset="0.6515" stop-color="#C65A35"/>
<stop offset="0.7114" stop-color="#D67456"/>
<stop offset="0.7948" stop-color="#C55733"/>
<stop offset="0.9201" stop-color="#C55732"/>
<stop offset="0.9663" stop-color="#D06C4B"/>
<stop offset="1" stop-color="#C55732"/>
</linearGradient>
<radialGradient id="paint15_radial_8_532" cx="0" cy="0" r="1" gradientUnits="userSpaceOnUse" gradientTransform="translate(13.5668 9.80782) rotate(-24.6251) scale(3.40544 1.78234)">
<stop offset="0.1407" stop-color="#733619"/>
<stop offset="0.9247" stop-color="#8D401E"/>
</radialGradient>
<radialGradient id="paint16_radial_8_532" cx="0" cy="0" r="1" gradientUnits="userSpaceOnUse" gradientTransform="translate(13.5348 9.64567) rotate(-24.6251) scale(3.40544 1.78234)">
<stop offset="0.3514" stop-color="#BB5B27"/>
<stop offset="1" stop-color="#8D401E"/>
</radialGradient>
<linearGradient id="paint17_linear_8_532" x1="17.1452" y1="8.76168" x2="11.9974" y2="10.9792" gradientUnits="userSpaceOnUse">
<stop offset="0.1326" stop-color="#C55833"/>
<stop offset="0.1631" stop-color="#CF6947"/>
<stop offset="0.1954" stop-color="#C65935"/>
<stop offset="0.4201" stop-color="#C55733"/>
<stop offset="0.4302" stop-color="#D67456"/>
<stop offset="0.4771" stop-color="#C3532E"/>
<stop offset="0.6515" stop-color="#C65A35"/>
<stop offset="0.7114" stop-color="#D67456"/>
<stop offset="0.7948" stop-color="#C55733"/>
<stop offset="0.9201" stop-color="#C55732"/>
<stop offset="0.9663" stop-color="#D06C4B"/>
<stop offset="1" stop-color="#C55732"/>
</linearGradient>
<radialGradient id="paint18_radial_8_532" cx="0" cy="0" r="1" gradientUnits="userSpaceOnUse" gradientTransform="translate(15.6045 10.4262) rotate(-14.6908) scale(3.40524 1.78241)">
<stop offset="0.1407" stop-color="#733619"/>
<stop offset="0.9247" stop-color="#8D401E"/>
</radialGradient>
<radialGradient id="paint19_radial_8_532" cx="0" cy="0" r="1" gradientUnits="userSpaceOnUse" gradientTransform="translate(15.6008 10.2608) rotate(-14.6908) scale(3.40524 1.78241)">
<stop offset="0.3514" stop-color="#BB5B27"/>
<stop offset="1" stop-color="#8D401E"/>
</radialGradient>
<linearGradient id="paint20_linear_8_532" x1="19.3092" y1="10.0122" x2="13.8563" y2="11.3085" gradientUnits="userSpaceOnUse">
<stop offset="0.1326" stop-color="#C55833"/>
<stop offset="0.1631" stop-color="#CF6947"/>
<stop offset="0.1954" stop-color="#C65935"/>
<stop offset="0.4201" stop-color="#C55733"/>
<stop offset="0.4302" stop-color="#D67456"/>
<stop offset="0.4771" stop-color="#C3532E"/>
<stop offset="0.6515" stop-color="#C65A35"/>
<stop offset="0.7114" stop-color="#D67456"/>
<stop offset="0.7948" stop-color="#C55733"/>
<stop offset="0.9201" stop-color="#C55732"/>
<stop offset="0.9663" stop-color="#D06C4B"/>
<stop offset="1" stop-color="#C55732"/>
</linearGradient>
<radialGradient id="paint21_radial_8_532" cx="0" cy="0" r="1" gradientUnits="userSpaceOnUse" gradientTransform="translate(3.61422 11.063) rotate(14.1464) scale(4.26278 3.47436)">
<stop offset="0.4485" stop-color="#FFF3E1"/>
<stop offset="1" stop-color="#FFE0B2"/>
</radialGradient>
<radialGradient id="paint22_radial_8_532" cx="0" cy="0" r="1" gradientUnits="userSpaceOnUse" gradientTransform="translate(3.93665 11.9786) rotate(14.1464) scale(1.21399 0.989459)">
<stop stop-color="#F36E21"/>
<stop offset="1" stop-color="#FAAA43"/>
</radialGradient>
<radialGradient id="paint23_radial_8_532" cx="0" cy="0" r="1" gradientUnits="userSpaceOnUse" gradientTransform="translate(7.16274 12.2426) rotate(1.77076) scale(2.38345 1.41028)">
<stop offset="0.1977" stop-color="#8D6E63"/>
<stop offset="0.8299" stop-color="#6D4D42"/>
</radialGradient>
<radialGradient id="paint24_radial_8_532" cx="0" cy="0" r="1" gradientUnits="userSpaceOnUse" gradientTransform="translate(15.707 11.1851) scale(1.17636)">
<stop offset="0.3976" stop-color="#8BC249"/>
<stop offset="0.9398" stop-color="#7CB342"/>
</radialGradient>
<radialGradient id="paint25_radial_8_532" cx="0" cy="0" r="1" gradientUnits="userSpaceOnUse" gradientTransform="translate(18.7253 10.0439) scale(1.17636)">
<stop offset="0.3976" stop-color="#8BC249"/>
<stop offset="0.9398" stop-color="#7CB342"/>
</radialGradient>
<radialGradient id="paint26_radial_8_532" cx="0" cy="0" r="1" gradientUnits="userSpaceOnUse" gradientTransform="translate(11.667 12.0824) rotate(-2.39) scale(2.38343 1.41035)">
<stop offset="0.1977" stop-color="#8D6E63"/>
<stop offset="0.8299" stop-color="#6D4D42"/>
</radialGradient>
<radialGradient id="paint27_radial_8_532" cx="0" cy="0" r="1" gradientUnits="userSpaceOnUse" gradientTransform="translate(11.7197 12.2684) rotate(11.6189) scale(1.02934)">
<stop offset="0.1134" stop-color="#FECC81"/>
<stop offset="0.8178" stop-color="#FAA629"/>
</radialGradient>
<radialGradient id="paint28_radial_8_532" cx="0" cy="0" r="1" gradientUnits="userSpaceOnUse" gradientTransform="translate(7.20161 12.4333) rotate(15.7833) scale(1.02935)">
<stop offset="0.1134" stop-color="#FECC81"/>
<stop offset="0.8178" stop-color="#FAA629"/>
</radialGradient>
<radialGradient id="paint29_radial_8_532" cx="0" cy="0" r="1" gradientUnits="userSpaceOnUse" gradientTransform="translate(7.05653 14.0026) rotate(6.14785) scale(12.3254 8.65737)">
<stop offset="0.2291" stop-color="#F5F5F5"/>
<stop offset="0.8173" stop-color="#BDBDBD"/>
<stop offset="0.9733" stop-color="#E0E0E0"/>
</radialGradient>
<radialGradient id="paint30_radial_8_532" cx="0" cy="0" r="1" gradientUnits="userSpaceOnUse" gradientTransform="translate(6.41932 9.6392) scale(13.3128 13.3128)">
<stop offset="0.3451" stop-color="#F5F5F5"/>
<stop offset="0.8524" stop-color="#E0E0E0"/>
</radialGradient>
<linearGradient id="paint31_linear_8_532" x1="14.1363" y1="0.912255" x2="14.1363" y2="2.37909" gradientUnits="userSpaceOnUse">
<stop offset="0.3477" stop-color="#795649"/>
<stop offset="0.8524" stop-color="#5D4137"/>
</linearGradient>
<linearGradient id="paint32_linear_8_532" x1="8.33771" y1="1.41796" x2="8.33771" y2="9.6003" gradientUnits="userSpaceOnUse">
<stop offset="0.2141" stop-color="#FECC81"/>
<stop offset="1" stop-color="#FAA629"/>
</linearGradient>
<linearGradient id="paint33_linear_8_532" x1="10.2114" y1="4.36444" x2="10.2114" y2="9.92032" gradientUnits="userSpaceOnUse">
<stop offset="0.5446" stop-color="#FECC81"/>
<stop offset="1" stop-color="#FAA629"/>
</linearGradient>
<linearGradient id="paint34_linear_8_532" x1="14.125" y1="3.05451" x2="14.125" y2="4.41297" gradientUnits="userSpaceOnUse">
<stop offset="0.3477" stop-color="#795649"/>
<stop offset="0.8524" stop-color="#5D4137"/>
</linearGradient>
<linearGradient id="paint35_linear_8_532" x1="10.8606" y1="4.36441" x2="10.8606" y2="9.92028" gradientUnits="userSpaceOnUse">
<stop offset="0.6169" stop-color="#FECC81"/>
<stop offset="1" stop-color="#FAA629"/>
</linearGradient>
<linearGradient id="paint36_linear_8_532" x1="9.31389" y1="3.00457" x2="9.31389" y2="10.4916" gradientUnits="userSpaceOnUse">
<stop offset="0.2141" stop-color="#FECC81"/>
<stop offset="1" stop-color="#FAA629"/>
</linearGradient>
</defs>
</svg>
