<svg width="100%" height="100%" viewBox="0 0 29 28" fill="none" xmlns="http://www.w3.org/2000/svg">
<path d="M14.7708 19.8884C8.76158 19.8884 3.75389 18.0219 2.61578 15.5636C4.70991 21.9825 3.43522 27.9462 14.7708 27.9462C26.1064 27.9462 24.8317 21.9825 26.9258 15.5636C25.7877 18.0219 20.78 19.8884 14.7708 19.8884Z" fill="#3E4347"/>
<path d="M9.17131 9.05361C15.5903 7.27815 30.3402 9.9641 27.1079 16.0644C28.8834 18.0674 29.5207 20.2071 21.0532 20.0705C8.0332 23.1207 -2.71056 16.7928 2.02398 12.0127C0.885866 9.69095 3.38971 8.50731 9.17131 9.05361Z" fill="#6F7980"/>
<path d="M14.7708 19.6153C20.4614 19.6153 25.1959 17.8398 26.2885 15.5181C26.3795 15.2905 26.4251 15.0628 26.5161 14.8352C26.5161 14.6986 26.5616 14.6076 26.5616 14.471C26.5616 11.6485 21.2808 9.37228 14.8163 9.37228C8.35187 9.37228 3.07104 11.6485 3.07104 14.471C3.07104 14.6076 3.07104 14.6986 3.11656 14.8352C3.16209 15.0628 3.25313 15.2905 3.34418 15.5181C4.34572 17.8398 9.08026 19.6153 14.7708 19.6153Z" fill="#3E4347"/>
<path d="M14.7708 19.6153C20.4614 19.6153 25.1959 17.8398 26.2885 15.5181C26.2885 15.427 26.334 15.3815 26.334 15.2904C25.378 12.8776 20.5524 11.0567 14.7253 11.0567C8.89818 11.0567 4.07259 12.8776 3.11658 15.2904C3.1621 15.3815 3.1621 15.427 3.1621 15.5181C4.34574 17.8398 9.08028 19.6153 14.7708 19.6153Z" fill="#FBBF67"/>
<path d="M16.3642 13.5605C14.0879 13.515 11.3109 15.336 9.44445 15.1994C6.34879 14.9718 9.5355 16.4741 11.7207 16.4741C13.1775 16.4741 14.179 15.1539 14.9529 14.6076C16.0455 13.9247 18.7314 13.6061 16.3642 13.5605Z" fill="#D33B23"/>
<path d="M9.62654 12.0582C9.03473 10.4194 5.62039 13.1053 8.53396 13.6971C8.9892 13.7882 10.1273 13.515 9.62654 12.0582ZM16.2276 17.2025C15.4992 15.1994 11.2654 18.5227 14.9074 19.2056C15.4537 19.2966 16.8649 18.978 16.2276 17.2025ZM17.0015 11.4664C16.3186 9.82755 12.0849 12.5135 15.6813 13.1053C16.1821 13.1508 17.5933 12.8777 17.0015 11.4664ZM23.9667 13.2419C23.6936 11.4664 18.2762 12.468 22.0092 14.3345C22.5555 14.6076 24.1944 14.8352 23.9667 13.2419Z" fill="#FF8736"/>
<path d="M6.84957 14.8352C6.3488 14.1523 5.62041 13.2419 5.34726 13.6971C4.93754 14.3344 4.80097 15.6091 5.11964 15.6546C7.39586 16.1099 7.21376 15.3815 6.84957 14.8352ZM19.3688 13.5605C18.5493 13.9247 18.0486 13.6516 17.6844 14.1979C16.8194 15.427 19.7785 15.8367 20.3248 15.1084C20.7345 14.6076 19.9151 13.3329 19.3688 13.5605ZM20.0517 16.6107C19.4598 16.3375 19.5964 17.248 18.6859 16.5196C18.0486 16.0188 16.6828 17.2935 17.5933 18.1585C18.5949 19.1145 18.868 18.204 19.2777 18.2951C20.1427 18.4316 21.645 17.2935 20.0517 16.6107ZM10.0363 16.8838C9.48998 16.3375 8.62502 17.8853 8.94369 18.2951C9.62656 19.2055 12.0849 19.0235 12.7222 18.3406C13.5417 17.5211 11.3565 18.1585 10.0363 16.8838Z" fill="#89664C"/>
<path d="M7.94214 16.4286C7.94214 16.4286 7.98766 16.9749 8.07871 17.2025C7.48689 16.9749 7.48689 15.9278 7.48689 15.9278C7.48689 15.9278 7.07717 16.1554 7.1227 16.5652C6.48536 16.0189 5.93906 16.292 5.93906 16.292C5.93906 16.292 6.7585 16.7473 6.89508 17.0659C6.43983 17.1115 6.16669 17.248 5.98459 17.6122C5.98459 17.6122 6.89508 17.157 7.57794 17.4757C7.3048 17.7033 7.44137 18.2496 7.44137 18.2496C8.53396 17.1115 9.21682 18.113 9.71759 17.8398C9.30787 17.2936 8.71605 17.2025 8.71605 17.2025C8.48843 16.7473 7.94214 16.4286 7.94214 16.4286ZM12.8588 11.9672C12.3125 11.8762 11.7662 12.1493 11.7662 12.1493C11.7662 12.1493 12.267 12.3769 12.4946 12.468C11.9938 12.8777 11.0833 12.3314 11.0833 12.3314C11.0833 12.3314 11.0833 12.7866 11.4475 12.9687C10.6736 13.2419 10.5826 13.8792 10.5826 13.8792C10.5826 13.8792 11.402 13.424 11.7207 13.4695C11.493 13.8792 11.493 14.1979 11.7662 14.5166C11.7662 14.5166 11.8572 13.515 12.4946 13.1053C12.5401 13.4695 13.0864 13.6061 13.0864 13.6061C12.6767 12.1038 13.9058 12.0127 13.9058 11.4664C13.2685 11.4664 12.8588 11.9672 12.8588 11.9672ZM23.466 16.0644C23.6936 15.8368 24.6496 15.7002 24.6496 15.7002C24.6496 15.7002 24.2399 15.245 23.4204 15.4726C23.6025 15.1084 23.3294 14.7442 23.3294 14.7442C23.3294 14.7442 22.9197 15.7002 22.2823 15.7002C22.4644 15.4726 22.6921 15.0173 22.6921 15.0173C22.6921 15.0173 22.0547 15.1539 21.6905 15.5636C21.6905 15.5636 21.0987 15.3815 20.5524 15.7457C20.8711 16.201 21.9181 15.5181 22.4644 16.9749C22.4644 16.9749 22.7831 16.5196 22.6465 16.201C23.3749 16.1554 24.0578 16.9294 24.0578 16.9294C24.0578 16.5196 23.8757 16.292 23.466 16.0644Z" fill="#699635"/>
<path opacity="0.6" d="M15.135 4.91089C13.4506 3.18096 14.5887 0.631592 14.5887 0.631592C14.5887 0.631592 11.0378 4.0004 13.2685 6.32214C15.8634 9.00809 14.5887 10.647 14.5887 10.647C14.5887 10.647 17.7754 7.64235 15.135 4.91089ZM10.1273 6.45872C8.85263 5.22956 9.7176 3.36306 9.7176 3.36306C9.7176 3.36306 7.07718 5.82138 8.76158 7.50578C10.7191 9.46333 9.7176 10.647 9.7176 10.647C9.7176 10.647 12.0849 8.46179 10.1273 6.45872ZM20.1427 6.45872C18.868 5.22956 19.733 3.36306 19.733 3.36306C19.733 3.36306 17.0926 5.82138 18.777 7.50578C20.7345 9.46333 19.733 10.647 19.733 10.647C19.733 10.647 22.1002 8.46179 20.1427 6.45872Z" fill="#A6AEB0"/>
</svg>
