<svg width="41" height="41" viewBox="0 0 41 41" fill="none" xmlns="http://www.w3.org/2000/svg">
<path d="M35.875 20.5C35.8801 23.5524 34.9722 26.5366 33.2681 29.069C31.8627 31.1651 29.9626 32.8825 27.7356 34.0696C25.5087 35.2567 23.0236 35.8767 20.5 35.875C17.9764 35.8767 15.4913 35.2567 13.2644 34.0696C11.0374 32.8825 9.13727 31.1651 7.73192 29.069C6.39383 27.0744 5.54167 24.794 5.24374 22.4107C4.94581 20.0274 5.21041 17.6074 6.01632 15.3447C6.82223 13.0821 8.14703 11.0398 9.88453 9.38141C11.622 7.72307 13.7239 6.49486 16.0216 5.79525C18.3193 5.09564 20.749 4.94409 23.1159 5.35274C25.4827 5.76139 27.7209 6.71888 29.651 8.14845C31.5812 9.57802 33.1495 11.4399 34.2303 13.5848C35.3112 15.7298 35.8744 18.0981 35.875 20.5Z" stroke="black" stroke-width="2"/>
<path d="M22.2083 15.375C22.2083 15.8281 22.0284 16.2626 21.708 16.583C21.3876 16.9033 20.9531 17.0833 20.5 17.0833V20.5C21.8592 20.5 23.1628 19.96 24.1239 18.9989C25.0851 18.0378 25.625 16.7342 25.625 15.375H22.2083ZM20.5 17.0833C20.0469 17.0833 19.6124 16.9033 19.292 16.583C18.9717 16.2626 18.7917 15.8281 18.7917 15.375H15.375C15.375 16.7342 15.915 18.0378 16.8761 18.9989C17.8372 19.96 19.1408 20.5 20.5 20.5V17.0833ZM18.7917 15.375C18.7917 14.9219 18.9717 14.4874 19.292 14.167C19.6124 13.8467 20.0469 13.6667 20.5 13.6667V10.25C19.1408 10.25 17.8372 10.79 16.8761 11.7511C15.915 12.7122 15.375 14.0158 15.375 15.375H18.7917ZM20.5 13.6667C20.9531 13.6667 21.3876 13.8467 21.708 14.167C22.0284 14.4874 22.2083 14.9219 22.2083 15.375H25.625C25.625 14.0158 25.0851 12.7122 24.1239 11.7511C23.1628 10.79 21.8592 10.25 20.5 10.25V13.6667ZM8.82526 30.504L7.18697 30.0171L6.92218 30.9106L7.52864 31.6161L8.82526 30.504ZM32.1748 30.504L33.4731 31.6161L34.0778 30.9106L33.8131 30.0171L32.1748 30.504ZM15.375 27.3333H25.625V23.9167H15.375V27.3333ZM15.375 23.9167C13.5354 23.9166 11.7448 24.5103 10.2696 25.6094C8.79439 26.7085 7.71327 28.2544 7.18697 30.0171L10.4618 30.9909C10.7783 29.9338 11.4273 29.007 12.3124 28.3481C13.1975 27.6891 14.2716 27.3333 15.375 27.3333V23.9167ZM20.5 34.1667C18.5277 34.1689 16.5784 33.7431 14.7867 32.9188C12.9949 32.0944 11.4034 30.8911 10.1219 29.3919L7.52864 31.6161C9.13086 33.4893 11.1202 34.9928 13.3596 36.023C15.5989 37.0532 18.0351 37.5855 20.5 37.5833V34.1667ZM25.625 27.3333C27.9432 27.3333 29.9061 28.8743 30.5382 30.9926L33.8131 30.0171C33.2868 28.2546 32.2043 26.709 30.7294 25.6099C29.2545 24.5109 27.4644 23.917 25.625 23.9167V27.3333ZM30.8781 29.3919C29.5966 30.8911 28.0051 32.0944 26.2133 32.9188C24.4216 33.7431 22.4723 34.1689 20.5 34.1667V37.5833C22.965 37.5855 25.4011 37.0532 27.6404 36.023C29.8798 34.9928 31.8709 33.4893 33.4731 31.6161L30.8781 29.3919Z" fill="black"/>
</svg>
