<svg width="54" height="26" viewBox="0 0 54 26" fill="none" xmlns="http://www.w3.org/2000/svg">
<path d="M27.5202 7.23577C27.5205 5.98821 27.8376 4.76191 28.4408 3.67586C29.044 2.58981 29.9129 1.6809 30.963 1.03732C32.0132 0.393752 33.2089 0.0373778 34.4343 0.00278356C35.6597 -0.0318107 36.873 0.25655 37.9566 0.839883C39.0402 1.42322 39.9572 2.28171 40.6186 3.33206C41.2801 4.3824 41.6635 5.58893 41.7317 6.83455C41.7999 8.08018 41.5506 9.32259 41.0079 10.4412C40.4653 11.5599 39.6477 12.5168 38.6345 13.219C40.8164 14.0335 42.7088 15.4938 44.0683 17.4121C45.4278 19.3303 46.1922 21.6187 46.2629 23.9828C46.2599 24.2377 46.1603 24.4816 45.9847 24.6634C45.8092 24.8453 45.5715 24.9511 45.3211 24.9587C45.0708 24.9664 44.8272 24.8753 44.6413 24.7044C44.4554 24.5336 44.3415 24.2963 44.3235 24.042C44.2465 21.478 43.1916 19.0453 41.3822 17.2593C39.5729 15.4733 37.1514 14.4745 34.6308 14.4745C32.1103 14.4745 29.6888 15.4733 27.8794 17.2593C26.0701 19.0453 25.0152 21.478 24.9382 24.042C24.9252 24.2997 24.8136 24.542 24.6273 24.717C24.441 24.892 24.1947 24.9857 23.9413 24.9781C23.6878 24.9706 23.4474 24.8623 23.2715 24.6765C23.0955 24.4907 22.9981 24.2422 23 23.9841C23.0706 21.6198 23.8348 19.3311 25.1943 17.4126C26.5538 15.4941 28.4464 14.0335 30.6285 13.219C29.6702 12.5554 28.886 11.6632 28.3442 10.6203C27.8024 9.57739 27.5195 8.41545 27.5202 7.23577ZM34.6315 1.9723C33.2598 1.9723 31.9444 2.52684 30.9744 3.51393C30.0045 4.50102 29.4596 5.83981 29.4596 7.23577C29.4596 8.63173 30.0045 9.97052 30.9744 10.9576C31.9444 11.9447 33.2598 12.4992 34.6315 12.4992C36.0031 12.4992 37.3186 11.9447 38.2885 10.9576C39.2584 9.97052 39.8033 8.63173 39.8033 7.23577C39.8033 5.83981 39.2584 4.50102 38.2885 3.51393C37.3186 2.52684 36.0031 1.9723 34.6315 1.9723ZM45.3501 7.23577C45.1588 7.23577 44.9726 7.24893 44.789 7.27525C44.6608 7.29861 44.5293 7.29545 44.4023 7.26597C44.2754 7.23648 44.1555 7.18128 44.05 7.10364C43.9445 7.026 43.8554 6.92753 43.788 6.81409C43.7207 6.70065 43.6765 6.57456 43.6581 6.44336C43.6397 6.31216 43.6474 6.17853 43.6808 6.05044C43.7143 5.92235 43.7727 5.80242 43.8527 5.69782C43.9326 5.59321 44.0325 5.50607 44.1462 5.44158C44.26 5.3771 44.3854 5.3366 44.5149 5.3225C45.8008 5.13328 47.1121 5.3846 48.2423 6.03691C49.3725 6.68922 50.2575 7.70549 50.758 8.92578C51.2586 10.1461 51.3462 11.5011 51.0071 12.7776C50.668 14.0541 49.9215 15.1797 48.8851 15.9771C50.4087 16.6714 51.7023 17.7996 52.6099 19.2255C53.5175 20.6514 54.0003 22.3141 54 24.0131C54 24.2748 53.8978 24.5259 53.716 24.7109C53.5341 24.896 53.2875 25 53.0303 25C52.7731 25 52.5264 24.896 52.3446 24.7109C52.1627 24.5259 52.0606 24.2748 52.0606 24.0131C52.0604 22.5448 51.5955 21.1156 50.7348 19.9372C49.8741 18.7588 48.6633 17.8939 47.2818 17.4706L46.5913 17.2601V15.0547L47.1215 14.7796C47.9073 14.3745 48.536 13.7118 48.9061 12.8983C49.2763 12.0848 49.3663 11.1681 49.1615 10.2962C48.9568 9.42424 48.4693 8.64798 47.7778 8.0927C47.0862 7.53742 46.231 7.23553 45.3501 7.23577Z" fill="black"/>
<path d="M10 9.33332C7.37919 9.33332 5.14169 10.3425 4.57752 12.4283C4.40702 13.0529 4.28554 13.6898 4.21419 14.3333H15.7859C15.7146 13.691 15.5934 13.0552 15.4234 12.4317C14.8592 10.3433 12.6234 9.33332 10 9.33332ZM16.6667 16H3.33335C3.33335 17.7681 4.03573 19.4638 5.28598 20.714C6.53622 21.9643 8.23191 22.6667 10 22.6667C11.7681 22.6667 13.4638 21.9643 14.7141 20.714C15.9643 19.4638 16.6667 17.7681 16.6667 16ZM2.54002 14.3333C2.60669 13.595 2.75419 12.7842 2.96835 11.9925C3.83752 8.78416 7.13669 7.66666 10 7.66666C12.8667 7.66666 16.1642 8.78582 17.0325 11.9967C17.2459 12.7867 17.3934 13.5967 17.46 14.3333H18.3334V16C18.3334 20.6025 14.6025 24.3333 10 24.3333C5.39752 24.3333 1.66669 20.6025 1.66669 16V14.3333H2.54002ZM9.16502 10.165H10.835V11.835H9.16502V10.165ZM6.66502 11.8317H8.33502V13.5017H6.66502V11.8317ZM11.665 11.8317H13.335V13.5017H11.665V11.8317Z" fill="black"/>
</svg>
