<svg width="30" height="27" viewBox="0 0 30 27" fill="none" xmlns="http://www.w3.org/2000/svg">
<g clip-path="url(#clip0_122_822)">
<path d="M19.6406 16.2L14.7656 11.8125C13.3125 10.5047 14.5781 7.17188 10.7344 3.7125C8.01562 1.26563 3.56249 -0.0843717 1.73437 1.56094C-0.0937567 3.20625 1.40624 7.21406 4.12499 9.66094C7.96874 13.1203 11.625 11.9813 13.125 13.2891L18 17.6766C20.0156 19.4906 20.1562 20.1234 23.2969 23.9203C24.8437 25.8187 26.3437 27 28.1719 25.3547C30.0469 23.6672 28.6875 22.3594 26.5781 20.9672C22.3594 18.1406 21.7031 18.0141 19.6406 16.2Z" fill="#D0D0D0"/>
<path d="M19.6406 16.2L14.7656 11.8125C13.3125 10.5047 14.5781 7.17188 10.7344 3.7125C8.01562 1.26563 3.56249 -0.0843717 1.73437 1.56094C-0.0937567 3.20625 1.40624 7.21406 4.12499 9.66094C7.96874 13.1203 11.625 11.9813 13.125 13.2891L18 17.6766C20.0156 19.4906 20.1562 20.1234 23.2969 23.9203C24.8437 25.8187 26.3437 27 28.1719 25.3547C30.0469 23.6672 28.6875 22.3594 26.5781 20.9672C22.3594 18.1406 21.7031 18.0141 19.6406 16.2Z" fill="#D0D0D0"/>
<path d="M7.3125 2.48901C9.84375 5.39995 10.6875 8.77495 9.375 10.9687C9.46875 10.9687 9.5625 11.0109 9.60937 11.0109C10.5 11.0109 11.2969 10.8 11.8594 10.2937C12.4219 9.78745 12.7969 9.07026 12.6562 8.2687C12.4687 7.08745 11.7656 5.73745 10.2187 4.34526C9.375 3.5437 8.34375 2.91089 7.3125 2.48901Z" fill="white"/>
<path d="M6.1875 9.99846C2.95312 7.08752 1.875 3.33284 3.60937 1.39221C3 1.4344 2.53125 1.60315 2.15625 1.94065C0.703124 3.24846 1.875 6.87659 4.54687 9.28127C5.625 10.2516 6.70312 10.8422 7.6875 11.2219C7.6875 11.2219 7.6875 11.1797 7.64062 11.1797C7.125 10.8422 6.65625 10.4203 6.1875 9.99846Z" fill="#94989B"/>
</g>
<defs>
<clipPath id="clip0_122_822">
<rect width="30" height="27" fill="white"/>
</clipPath>
</defs>
</svg>
