<svg width="100%" height="100%" viewBox="0 0 45 45" fill="none" xmlns="http://www.w3.org/2000/svg">
<path d="M30.8927 25.4167C31.3234 25.4169 31.7499 25.5019 32.1477 25.6669C32.5456 25.8319 32.907 26.0736 33.2114 26.3783C33.5159 26.683 33.7573 27.0447 33.9219 27.4427C34.0866 27.8407 34.1712 28.2672 34.171 28.6979V29.5365C34.171 30.8402 33.7044 32.1017 32.8585 33.0919C30.569 35.765 27.0879 37.0848 22.5 37.0848C17.9135 37.0848 14.4325 35.765 12.1488 33.089C11.3038 32.0993 10.8395 30.8407 10.8392 29.5394V28.6965C10.8392 27.8266 11.1847 26.9924 11.7998 26.3773C12.4149 25.7622 13.2491 25.4167 14.119 25.4167H30.8927ZM30.8927 27.6042H14.1175C13.9738 27.604 13.8315 27.6321 13.6987 27.687C13.5659 27.7419 13.4453 27.8225 13.3437 27.9241C13.2421 28.0257 13.1615 28.1463 13.1066 28.2791C13.0517 28.4119 13.0236 28.5542 13.0238 28.6979V29.5394C13.0238 30.3196 13.3038 31.075 13.8113 31.6686C15.6385 33.8108 18.5071 34.8973 22.4985 34.8973C26.4929 34.8973 29.3615 33.8108 31.1946 31.67C31.703 31.0754 31.9823 30.3188 31.9821 29.5365V28.6965C31.9821 28.407 31.8672 28.1294 31.6627 27.9246C31.4581 27.7198 31.1822 27.6046 30.8927 27.6042ZM22.5 7.92397C23.4576 7.92397 24.4057 8.11257 25.2904 8.47901C26.1751 8.84545 26.9789 9.38255 27.656 10.0596C28.3331 10.7367 28.8702 11.5406 29.2366 12.4252C29.6031 13.3099 29.7917 14.2581 29.7917 15.2156C29.7917 16.1732 29.6031 17.1214 29.2366 18.006C28.8702 18.8907 28.3331 19.6945 27.656 20.3716C26.9789 21.0487 26.1751 21.5858 25.2904 21.9523C24.4057 22.3187 23.4576 22.5073 22.5 22.5073C20.5661 22.5073 18.7115 21.7391 17.344 20.3716C15.9766 19.0042 15.2083 17.1495 15.2083 15.2156C15.2083 13.2818 15.9766 11.4271 17.344 10.0596C18.7115 8.69219 20.5661 7.92397 22.5 7.92397ZM22.5 10.1115C21.8297 10.1115 21.166 10.2435 20.5467 10.5C19.9275 10.7565 19.3648 11.1325 18.8908 11.6064C18.4168 12.0804 18.0409 12.6431 17.7844 13.2624C17.5279 13.8816 17.3958 14.5453 17.3958 15.2156C17.3958 15.8859 17.5279 16.5496 17.7844 17.1689C18.0409 17.7882 18.4168 18.3509 18.8908 18.8248C19.3648 19.2988 19.9275 19.6748 20.5467 19.9313C21.166 20.1878 21.8297 20.3198 22.5 20.3198C23.8537 20.3198 25.152 19.782 26.1092 18.8248C27.0664 17.8676 27.6042 16.5693 27.6042 15.2156C27.6042 13.8619 27.0664 12.5637 26.1092 11.6064C25.152 10.6492 23.8537 10.1115 22.5 10.1115Z" fill="black"/>
<circle cx="22.5" cy="22.5" r="21" stroke="black" stroke-width="3"/>
</svg>
