<svg width="100%" height="100%" viewBox="0 0 26 24" fill="none" xmlns="http://www.w3.org/2000/svg">
<path d="M13.0201 9.80658C16.2131 9.80658 19.2053 10.5496 21.4344 11.9152C23.5832 13.2205 24.768 14.9074 24.768 16.6947C24.768 18.482 23.5832 20.1689 21.4344 21.4742C19.2053 22.8599 16.2131 23.6029 13.0201 23.6029C9.82703 23.6029 6.83482 22.8599 4.60572 21.4943C2.45695 20.189 1.27211 18.5021 1.27211 16.7148C1.27211 14.9275 2.45695 13.2406 4.60572 11.9353C6.83482 10.5898 9.82703 9.80658 13.0201 9.80658Z" fill="#9D9D9D"/>
<path d="M13 22.9804C19.6546 22.9804 25.0492 19.6267 25.0492 15.4898C25.0492 11.3529 19.6546 7.99921 13 7.99921C6.34542 7.99921 0.950821 11.3529 0.950821 15.4898C0.950821 19.6267 6.34542 22.9804 13 22.9804Z" fill="url(#paint0_linear_8_575)"/>
<path d="M15.4299 16.7148C16.4281 16.7148 17.2373 15.9056 17.2373 14.9074C17.2373 13.9092 16.4281 13.1 15.4299 13.1C14.4317 13.1 13.6225 13.9092 13.6225 14.9074C13.6225 15.9056 14.4317 16.7148 15.4299 16.7148Z" fill="#F5F5F5"/>
<path d="M13 18C13.9982 18 14.8074 17.1908 14.8074 16.1926C14.8074 15.1944 13.9982 14.3853 13 14.3853C12.0018 14.3853 11.1926 15.1944 11.1926 16.1926C11.1926 17.1908 12.0018 18 13 18Z" fill="#F5F5F5"/>
<path d="M2.13565 14.8471C2.15573 15.2287 2.5172 15.55 2.5172 15.5902C2.49712 16.0721 2.19589 15.8713 2.41679 16.4738C2.6377 17.0762 2.97909 17.9197 3.38073 18.2209C4.34466 18.9438 5.62991 20.0684 6.5336 20.3496C8.22048 20.8316 9.58606 20.3496 11.4537 20.7914C13.1205 21.1729 14.7471 21.2332 16.1729 21.0123C16.5545 20.952 16.7754 20.4299 17.1369 20.3496C17.5385 20.2492 18.0406 20.5504 18.382 20.3897C21.334 19.0844 20.6311 18.5221 22.0168 17.6586C22.9205 17.0963 24.0049 16.7147 23.9045 15.2488C23.6635 12.0557 18.9443 9.34467 12.2971 9.34467C5.64999 9.34467 1.93483 12.377 2.13565 14.8471Z" fill="url(#paint1_linear_8_575)"/>
<path opacity="0.2" d="M13 8.60167C16.1127 8.60167 19.0246 9.3447 21.1934 10.7103C23.282 12.0156 24.4467 13.7025 24.4467 15.4898C24.4467 17.2771 23.3021 18.964 21.1934 20.2693C19.0246 21.6148 16.1127 22.3578 13 22.3578C9.8873 22.3578 6.97541 21.6148 4.80656 20.2492C2.69795 18.964 1.55328 17.257 1.55328 15.4898C1.55328 13.7226 2.69795 12.0156 4.80656 10.7103C6.97541 9.3447 9.8873 8.60167 13 8.60167ZM13 7.99921C6.35287 7.99921 0.950821 11.3529 0.950821 15.4898C0.950821 19.6267 6.35287 22.9804 13 22.9804C19.6471 22.9804 25.0492 19.6267 25.0492 15.4898C25.0492 11.3529 19.6471 7.99921 13 7.99921Z" fill="#434343"/>
<path d="M9.06393 12.859C9.10409 12.7988 9.12417 12.7586 9.16434 12.6984C9.28483 12.5176 8.9836 12.618 8.92335 12.6582C8.80286 12.7184 8.68237 12.7787 8.58196 12.8389C8.50163 12.8992 8.4213 12.9594 8.36106 13.0398C8.32089 13.1 8.30081 13.1402 8.26065 13.2004C8.14016 13.3811 8.44139 13.2807 8.50163 13.2406C8.62212 13.1803 8.74262 13.1201 8.84303 13.0598C8.90327 12.9996 9.00368 12.9393 9.06393 12.859Z" fill="#FFCC4D"/>
<path d="M6.93524 13.5418C6.11188 13.1602 5.12787 13.6221 4.68606 14.3652C4.12377 15.2689 4.56557 16.0721 5.38893 16.5943C5.71024 16.7951 6.37295 16.3734 5.99139 16.1525C5.54959 15.8914 5.10778 15.5701 5.22827 14.9877C5.32868 14.4656 5.91106 13.843 6.47336 14.1041C6.81475 14.2447 7.39713 13.7627 6.93524 13.5418Z" fill="#FFCB28"/>
<path d="M22.1373 16.293C22.3983 10.7103 16.0324 8.40083 11.3332 8.96312C9.8672 9.14386 8.16023 9.38484 6.83482 10.1078C5.73031 10.6902 4.86679 12.0156 6.05163 12.9996C7.17622 13.9234 8.70245 13.5016 9.98769 13.8832C11.8152 14.4455 9.12417 15.8512 8.50163 16.1123C7.47745 16.534 6.35286 16.7549 5.26843 16.4135C4.44507 16.1525 3.5213 15.7307 2.91884 15.068C2.09548 14.1443 2.79835 13.2004 3.56146 12.4775C5.30859 10.7906 7.95941 9.86681 10.3492 9.70616C10.8111 9.66599 11.0119 8.92296 10.4295 8.96312C8.38114 9.1037 6.33277 9.78648 4.56556 10.8709C3.44097 11.5738 1.93482 12.6984 1.69384 14.1242C1.45286 15.5299 3.11966 16.4135 4.184 16.8754C5.79056 17.5582 7.43728 17.3574 9.00368 16.6344C9.88728 16.2328 12.2168 15.048 11.3733 13.7426C10.6303 12.598 8.40122 13.1201 7.29671 12.6984C6.57376 12.4373 5.91105 11.875 6.73441 10.9914C6.9754 10.7303 7.39712 10.5898 7.73851 10.4693C8.74261 10.1078 9.80696 9.90697 10.8512 9.74632C12.0762 9.56558 13.2611 9.60575 14.4861 9.82665C18.0004 10.4291 21.4947 12.3971 21.3139 16.4135C21.2738 16.9357 22.1172 16.7148 22.1373 16.293Z" fill="#FDD836"/>
<path d="M1.91475 15.8713C2.03524 18.6828 5.24836 19.9078 7.71844 19.4459C9.18442 19.1848 10.2889 18.3213 11.8754 18.4017C13.2611 18.482 14.4459 19.1246 15.6107 19.8476C16.5143 20.3898 17.418 20.9922 18.5225 20.932C19.7676 20.8717 20.3299 20.1287 21.0729 19.2451C22.0168 18.1004 23.6033 17.9398 24.3061 16.4939C24.7279 15.6103 24.7279 14.4656 24.2459 13.582C22.8803 11.0717 19.366 9.78649 16.7754 9.26436C16.3537 9.18403 16.1328 10.0275 16.5947 10.1279C19.0045 10.6299 21.575 11.6742 23.2217 13.6021C23.8643 14.3652 24.1857 15.4094 23.6234 16.3332C22.9807 17.3976 21.5951 17.5783 20.7717 18.5021C19.9885 19.4058 19.4463 20.2693 18.0607 20.0082C17.1971 19.8476 16.434 19.2652 15.691 18.8234C13.8234 17.6988 11.6947 17.0762 9.5459 17.8795C8.26065 18.3615 7.25656 18.7832 5.83074 18.5221C4.28442 18.241 2.71803 17.3976 2.6377 15.6504C2.59754 15.0881 1.89467 15.4094 1.91475 15.8713Z" fill="#FEC111"/>
<path d="M4.68606 19.3857C6.85491 16.4738 8.92336 19.225 10.9717 20.6307C12.3373 21.5746 15.4299 21.8156 16.193 19.8877C16.8959 18.0803 14.5865 16.775 13.0803 17.0963C12.3373 17.257 11.6344 17.6787 11.4135 18.4217C11.1123 19.4258 11.8352 20.3295 12.4979 21.0123C12.8193 21.3537 13.3012 20.5906 13 20.2693C12.3574 19.6066 11.4938 18.5021 12.759 18.0201C13.4016 17.7791 14.2049 17.8394 14.7672 18.241C15.1889 18.5422 15.7914 19.1648 15.5102 19.707C15.2492 20.1889 14.4861 20.3295 13.984 20.3898C12.9598 20.5103 12.1766 20.3496 11.3332 19.7471C10.1484 18.9639 9.16434 17.759 7.77868 17.2971C6.25245 16.775 5.04754 17.7389 4.16393 18.9238C3.8627 19.3254 4.32458 19.8676 4.68606 19.3857Z" fill="#FDD836"/>
<path d="M9.1041 16.9357C10.4496 17.9398 12.759 17.6185 14.1246 16.7951C15.7312 15.8111 15.4299 14.064 13.7832 13.3812C13.2008 13.1402 11.5139 12.8992 12.1365 11.8951C12.8996 10.6701 15.0684 11.6943 15.8717 12.2967C17.0365 13.1804 18.1209 13.6623 19.6471 13.582C20.6111 13.5418 21.7357 13.1 22.318 14.1844C22.5791 14.6463 22.6795 15.5902 22.298 16.032C21.7959 16.6144 20.5307 16.5541 19.848 16.8353C18.6029 17.3373 17.8598 18.3816 17.3578 19.5865C17.157 20.0685 18.0205 20.209 18.1812 19.8074C18.7434 18.4217 19.5668 17.5181 21.0529 17.1767C21.7156 17.016 22.5189 16.9558 23.0008 16.4135C23.5631 15.791 23.5631 14.7066 23.2217 13.9836C22.7398 12.9594 21.6352 12.6181 20.5709 12.7586C19.2656 12.9394 18.0406 12.9594 16.9562 12.116C16.3939 11.6742 15.8918 11.2726 15.209 11.0115C14.2049 10.6299 13.0201 10.4492 12.0361 10.9914C11.534 11.2726 11.1123 11.7545 11.1123 12.3771C11.1324 13.1402 11.8754 13.4414 12.4779 13.6623C13 13.8431 13.6426 13.9635 14.0242 14.3853C14.5664 14.9676 14.3254 15.7107 13.743 16.1324C12.8193 16.8152 10.791 17.1767 9.80697 16.4336C9.50574 16.2328 8.70246 16.6144 9.1041 16.9357Z" fill="#FEC111"/>
<path opacity="0.3" d="M4.94711 13.1803C4.14383 14.807 4.92703 14.6262 5.75039 15.6102C6.23236 16.1725 6.13195 16.8955 6.79465 17.3373C7.859 18.0201 8.98359 17.9197 9.7467 18C11.0319 18.1406 11.0721 17.7189 12.3774 17.6586C13.2209 17.6184 14.6467 18.3213 15.3897 17.9398C16.5746 17.3172 18.0606 17.5582 18.6832 17.1766C19.7877 16.5139 18.8037 16.0119 19.7274 15.3693C20.3299 14.9475 21.2938 15.0279 21.093 13.7828C20.8922 12.598 19.9885 12.3168 18.4824 11.6541C17.5385 11.2324 17.6791 10.5898 15.8115 10.1279C15.1086 9.94714 13.8635 10.3889 13.0803 10.3889C12.1565 10.3889 11.0721 9.9873 9.94752 10.2484C8.7426 10.5295 8.60203 11.1721 7.81883 11.5939C6.71432 12.1562 5.34875 12.3771 4.94711 13.1803Z" fill="#BE3A26"/>
<path d="M3.38074 18.4619C4.52542 20.0283 5.85083 21.2533 7.89919 21.0926C8.72255 21.0324 9.52583 20.8115 10.3492 20.9119C11.4135 21.0123 12.4377 21.434 13.5221 21.5746C15.2492 21.7754 17.398 21.6549 18.0205 19.7271C18.4623 18.3816 17.9402 16.6947 16.434 16.4336C16.0123 16.3533 15.5504 17.0562 16.0926 17.1566C17.4984 17.3976 17.7193 19.6267 16.7152 20.4701C15.4299 21.5746 12.8394 20.6508 11.3734 20.3094C10.2689 20.0484 9.24468 20.2693 8.12009 20.3496C6.31271 20.5103 5.18812 19.4058 4.18402 18.0402C3.90287 17.6787 3.11968 18.1205 3.38074 18.4619Z" fill="#FEC111"/>
<path opacity="0.2" d="M12.7188 9.32462C13.9238 9.32462 15.1688 9.50535 16.3135 9.84675C16.3537 9.86683 16.3938 9.86683 16.4541 9.86683C16.5746 9.86683 16.6951 9.82667 16.7754 9.72626C18.5025 10.0877 22.4184 11.1922 23.8443 13.8029C24.2459 14.5459 24.266 15.5299 23.8844 16.2931C23.543 16.9758 22.9406 17.3574 22.2779 17.739C21.7357 18.0603 21.1533 18.4017 20.7115 18.9439L20.6311 19.0242C19.9484 19.8476 19.4865 20.4099 18.4824 20.45C18.4422 20.45 18.402 20.45 18.3619 20.45C18.141 20.45 17.9 20.4099 17.659 20.3496C17.6188 20.3295 17.5787 20.3295 17.5385 20.3295C17.4381 20.3295 17.3176 20.3697 17.2373 20.45C17.177 20.4902 17.1168 20.5504 17.0566 20.5906C16.4742 20.9722 15.691 21.173 14.727 21.173C13.6025 21.173 12.4176 20.8918 11.6143 20.691C10.8713 20.4902 10.2889 20.4099 9.70655 20.4099C9.50573 20.4099 9.30491 20.4299 9.10409 20.45C8.90327 20.4701 8.70246 20.4902 8.50164 20.5304C8.12008 20.5906 7.73852 20.6308 7.37705 20.6308C7.3168 20.6308 7.25655 20.6308 7.19631 20.6308C5.69016 20.5504 4.6459 19.4258 3.82254 18.3213C3.80245 18.2812 3.76229 18.241 3.72213 18.2209C3.11967 17.8193 2.39672 17.0562 2.33647 15.8312C2.33647 15.8312 2.33647 15.8111 2.35655 15.791C2.53729 15.6304 2.55737 15.3492 2.4168 15.1685C2.15573 14.8472 2.05532 14.5058 2.11557 14.1644C2.27623 13.2004 3.17991 12.2164 4.78647 11.2123C6.5336 10.148 8.48155 9.50535 10.4496 9.36478C10.5299 9.40494 10.6102 9.44511 10.6906 9.44511H10.7508C10.9516 9.42503 11.1324 9.40494 11.3332 9.36478H11.3734C11.8152 9.36478 12.277 9.32462 12.7188 9.32462ZM12.7188 8.88281C12.257 8.88281 11.775 8.90289 11.3332 8.96314C11.1324 8.98322 10.9115 9.0033 10.7107 9.04347C10.6504 9.0033 10.5902 8.96314 10.4697 8.96314C10.4496 8.96314 10.4496 8.96314 10.4295 8.96314C8.36106 9.10371 6.3127 9.7865 4.56557 10.8709C3.44098 11.5738 1.93483 12.6984 1.69385 14.1242C1.61352 14.6463 1.77418 15.1082 2.09549 15.4898C1.99508 15.5902 1.91475 15.7308 1.91475 15.8914C1.975 17.1164 2.59754 18.0201 3.50123 18.6426C4.425 19.8877 5.56967 21.0525 7.21639 21.1328H7.41721C8.01967 21.1328 8.58196 21.0123 9.18442 20.9521C9.38524 20.932 9.56598 20.9119 9.74672 20.9119C10.3492 20.9119 10.9115 21.0123 11.534 21.173C12.4979 21.414 13.6426 21.675 14.7471 21.675C15.6709 21.675 16.5746 21.4943 17.3176 21.0123L17.5586 20.8316C17.8197 20.9119 18.1008 20.9521 18.382 20.9521H18.5225C19.7676 20.8918 20.3299 20.1488 21.0729 19.2652C22.0168 18.1205 23.6033 17.9599 24.3061 16.514C24.7479 15.6304 24.7279 14.4857 24.2459 13.6021C22.8803 11.0918 19.366 9.80658 16.7754 9.28445C16.7553 9.28445 16.7352 9.28445 16.7152 9.28445C16.6147 9.28445 16.5143 9.3447 16.4541 9.44511C15.2291 9.06355 13.9438 8.88281 12.7188 8.88281Z" fill="#434343"/>
<path d="M5.67008 12.8389C4.92704 14.325 5.67008 14.1443 6.41311 15.048C6.85491 15.5701 6.7545 16.2127 7.35696 16.6143C8.3209 17.2369 9.34508 17.1365 10.0279 17.2168C11.1926 17.3574 11.2328 16.9557 12.3975 16.9156C13.1606 16.8955 14.4459 17.518 15.1287 17.1766C16.2131 16.6143 17.5385 16.8352 18.1008 16.4939C19.0848 15.8914 18.2213 15.4295 19.0447 14.8471C19.5869 14.4656 20.4705 14.5459 20.2897 13.4012C20.109 12.3168 19.2856 12.0758 17.9201 11.4734C17.0766 11.0918 17.1971 10.5094 15.4902 10.0877C14.8475 9.92705 13.7229 10.3287 13.0201 10.3287C12.1766 10.3287 11.2127 9.96721 10.1684 10.2082C9.06393 10.4693 8.96352 11.0516 8.24057 11.4131C7.29671 11.8951 6.05163 12.0959 5.67008 12.8389Z" fill="url(#paint2_radial_8_575)"/>
<path opacity="0.8" d="M12.0963 10.8107C11.3935 10.9914 10.4697 11.3931 10.53 12.2767C10.5902 12.9795 11.3131 13.2607 11.9357 13.3009C13.0804 13.3812 13.984 12.6381 15.0886 12.5177C15.2693 12.4976 16.675 12.4373 16.7353 12.7586C16.7554 12.8791 15.7914 13.0799 15.7111 13.1C15.5304 13.1201 15.3295 13.1201 15.1488 13.0799C14.9078 12.9795 14.8677 12.9996 15.0082 13.0799C15.3697 12.839 15.1689 12.0156 14.707 12.3369C13.6427 13.0599 14.205 13.9636 15.3496 14.0037C16.0927 14.0238 17.7996 13.5619 17.4381 12.4775C17.0767 11.373 15.2291 11.5738 14.4058 11.7947C13.6828 11.9754 13.0603 12.4373 12.2972 12.4574C12.0963 12.4574 11.3332 12.4574 11.2328 12.1562C11.1726 11.9353 12.0361 11.7345 12.1968 11.6943C12.6386 11.5537 12.6185 10.6902 12.0963 10.8107Z" fill="#F37046"/>
<path opacity="0.3" d="M6.85495 14.305C8.12012 14.0037 8.88323 15.7709 10.1283 15.8513C11.0521 15.8914 11.8955 15.289 12.7791 15.1886C13.6025 15.0881 14.2451 15.55 15.0283 15.7107C15.5906 15.8312 16.1931 15.8312 16.7353 15.6103C17.4984 15.309 17.88 14.6263 18.5226 14.1845C19.5267 13.5017 19.8078 13.08 18.7033 12.2164C18.3619 11.9554 17.659 12.4976 18.0406 12.7988C18.8439 13.4414 18.5427 13.3209 17.88 13.8029C17.2976 14.2246 16.916 14.9677 16.1529 15.048C14.9078 15.1886 14.0041 14.2447 12.7189 14.5058C12.016 14.6463 11.2127 15.1082 10.5099 15.1283C9.88733 15.1484 9.46561 14.6664 9.0238 14.305C8.30085 13.7226 7.67831 13.4213 6.73446 13.6222C6.23241 13.7226 6.29266 14.4254 6.85495 14.305Z" fill="#F37046"/>
<path opacity="0.8" d="M10.7709 10.7906C9.92749 10.8308 9.06397 11.1119 8.52176 11.8349C8.16028 12.3168 8.03979 12.9996 8.46151 13.4816C9.00372 14.1041 9.84717 13.8832 10.55 13.8029C10.7709 13.7828 11.4537 13.6623 11.7148 13.7828C11.8353 13.823 12.1566 14.1443 12.2972 14.2648C12.7189 14.5861 13.0603 13.7828 12.7189 13.5217C12.1164 13.0599 11.9759 12.859 11.2328 12.8791C10.6504 12.8791 9.98774 13.1201 9.40536 13.0197C8.70249 12.8791 8.90331 12.4172 9.38528 12.0959C9.76684 11.8349 10.2086 11.7344 10.6504 11.7144C11.1123 11.6541 11.2127 10.7705 10.7709 10.7906Z" fill="#F37046"/>
<path opacity="0.5" d="M12.3775 11.6742C13.1406 11.2726 13.9439 11.132 14.8074 11.2726C15.1488 11.3127 15.5304 11.4332 15.7914 11.132C16.1931 10.6902 15.6107 10.3287 15.189 10.5295C15.0484 10.5898 14.8877 10.7906 14.9279 10.9513C15.0484 11.373 15.5504 11.4131 15.5705 11.9353C15.5906 12.3972 16.4341 12.0959 16.414 11.6742C16.3939 11.4332 16.3738 11.2726 16.2132 11.0717C16.1529 10.9914 15.7713 10.7103 15.7513 10.6902C15.6709 10.8308 15.5705 10.9713 15.4902 11.1119H15.5103C15.3697 11.132 15.2291 11.132 15.0886 11.1521C15.189 11.1722 14.9681 11.1119 15.0685 10.891C15.189 10.7906 15.2894 10.6902 15.4099 10.6099C15.2894 10.65 14.8677 10.5095 14.7271 10.5095C14.4058 10.4894 14.0845 10.4894 13.7632 10.5295C13.1406 10.6099 12.5582 10.8107 12.016 11.1119C11.5541 11.3328 11.8754 11.9353 12.3775 11.6742Z" fill="#F37046"/>
<path opacity="0.2" d="M15.1889 10.4693C15.2893 10.4693 15.3697 10.4693 15.4299 10.4894C16.3738 10.7303 16.6549 10.9914 16.9561 11.2725C17.157 11.4533 17.3779 11.6742 17.7795 11.8549C17.9201 11.9152 18.0606 11.9754 18.2012 12.0357C19.366 12.5377 19.7676 12.7586 19.8881 13.4615C19.9684 13.9434 19.8479 13.9836 19.4061 14.1644C19.2254 14.2447 19.0246 14.325 18.8438 14.4455C18.2615 14.8471 18.2414 15.2889 18.2213 15.5902C18.2213 15.8111 18.2213 15.8914 17.9 16.0721C17.7393 16.1725 17.3377 16.2127 16.9762 16.2529C16.3738 16.3131 15.6307 16.3934 14.9479 16.7549C14.8877 16.7951 14.7873 16.8152 14.6467 16.8152C14.3455 16.8152 13.984 16.7348 13.6025 16.6344C13.2008 16.534 12.8193 16.4537 12.4779 16.4537C12.4578 16.4537 12.4377 16.4537 12.4176 16.4537C11.8352 16.4738 11.4938 16.5742 11.2127 16.6545C10.9717 16.7348 10.791 16.775 10.4697 16.775C10.3492 16.775 10.2287 16.775 10.0881 16.7549C9.92745 16.7348 9.7668 16.7348 9.58606 16.7148C8.96352 16.6746 8.26065 16.6344 7.59794 16.2127C7.37704 16.0721 7.29671 15.8914 7.17622 15.5701C7.07581 15.309 6.9754 15.0279 6.73442 14.7467C6.51352 14.4656 6.29261 14.2848 6.11188 14.1443C5.73032 13.823 5.69016 13.7828 6.07171 13.0398C6.25245 12.6984 6.81475 12.4775 7.43729 12.2365C7.77868 12.0959 8.14016 11.9754 8.48155 11.7947C8.82294 11.6139 9.04384 11.4131 9.22458 11.2324C9.50573 10.9713 9.74671 10.7504 10.309 10.6299C10.5098 10.5898 10.7307 10.5697 10.9717 10.5697C11.3332 10.5697 11.6947 10.6299 12.0361 10.6701C12.3975 10.7303 12.7188 10.7705 13.0602 10.7705C13.4016 10.7705 13.7631 10.7103 14.1647 10.6299C14.5262 10.5496 14.8877 10.4693 15.1889 10.4693ZM15.1889 10.0275C14.5463 10.0275 13.6426 10.3086 13.0602 10.3086C12.4377 10.3086 11.7348 10.1078 10.9717 10.1078C10.7307 10.1078 10.4697 10.1279 10.2086 10.1881C9.10409 10.4492 9.00368 11.0316 8.28073 11.393C7.29671 11.8951 6.05163 12.0959 5.69016 12.8389C4.94712 14.325 5.69016 14.1443 6.43319 15.048C6.87499 15.5701 6.77458 16.2127 7.37704 16.6144C8.34098 17.2369 9.36516 17.1365 10.0479 17.2168C10.2086 17.2369 10.3492 17.2369 10.4897 17.2369C11.2529 17.2369 11.4336 16.9357 12.4377 16.9156H12.4779C13.0803 16.9156 13.9639 17.2771 14.6467 17.2771C14.8274 17.2771 15.0082 17.2369 15.1488 17.1766C16.2332 16.6144 17.5586 16.8353 18.1209 16.4939C19.1049 15.8914 18.2414 15.4295 19.0647 14.8471C19.607 14.4656 20.4906 14.5459 20.3098 13.4012C20.1291 12.3168 19.3057 12.0758 17.9402 11.4734C17.0967 11.0918 17.2172 10.5094 15.5102 10.0877C15.4299 10.0275 15.3094 10.0275 15.1889 10.0275Z" fill="#434343"/>
<path d="M13.2611 4.94674L13.5824 4.28403C13.6627 4.12337 13.8234 3.9828 14.1447 3.92255L23.282 1.9746C23.6234 1.89428 23.8242 1.35206 23.7439 1.01067C23.6635 0.669276 23.3221 0.267637 22.9807 0.347965L13.8635 2.69755C13.5422 2.77788 13.3414 2.73772 13.2008 2.61723L12.6184 2.15534C12.3172 1.91436 11.8152 1.85411 11.3332 1.95452C9.12419 2.45657 7.83894 2.95862 6.49345 3.38034C6.15206 3.48075 6.01148 3.58116 6.05165 3.74182C6.09181 3.90247 6.25247 3.94264 6.61394 3.88239L9.48566 3.34018C9.60615 3.3201 9.72665 3.38034 9.74673 3.50083C9.76681 3.62133 9.70656 3.72174 9.58607 3.7619L6.79468 4.70575C6.4332 4.82624 6.31271 4.90657 6.35288 5.06723C6.39304 5.2078 6.5537 5.24796 6.91517 5.18772L9.86722 4.82624C9.98771 4.80616 10.0881 4.88649 10.1283 4.9869C10.1484 5.10739 10.068 5.22788 9.96763 5.24796L7.13607 6.01108C6.79468 6.11149 6.6541 6.2119 6.69427 6.37255C6.73443 6.53321 6.89509 6.55329 7.25656 6.51313C8.64222 6.27215 10.0279 6.17174 12.2168 5.66969C12.6787 5.54919 13.1004 5.30821 13.2611 4.94674Z" fill="url(#paint3_linear_8_575)"/>
<path opacity="0.2" d="M23.1012 0.528701C23.3021 0.528701 23.523 0.809848 23.5631 1.05083C23.6033 1.21149 23.543 1.43239 23.4426 1.59304C23.3824 1.69345 23.3021 1.7537 23.2418 1.77378L14.1045 3.72173C13.743 3.78198 13.5221 3.94263 13.4016 4.2037L13.0803 4.88649C12.9398 5.16763 12.5984 5.38854 12.1365 5.48895C10.6303 5.83034 9.50574 5.991 8.52173 6.13157C8.05984 6.19182 7.61804 6.25206 7.19632 6.33239C7.09591 6.33239 7.01558 6.33239 6.95533 6.33239C6.91517 6.33239 6.89509 6.33239 6.87501 6.33239C6.91517 6.31231 6.97542 6.27214 7.15615 6.2119L9.98771 5.44878C10.2086 5.38854 10.3492 5.16763 10.309 4.94673C10.309 4.94673 10.309 4.94673 10.309 4.92665C10.2689 4.72583 10.0881 4.60534 9.8873 4.60534C9.86722 4.60534 9.84714 4.60534 9.82705 4.60534L6.87501 4.96682C6.87501 4.96682 6.87501 4.96682 6.85492 4.96682C6.75451 4.9869 6.67419 4.9869 6.61394 4.9869C6.59386 4.9869 6.59386 4.9869 6.57378 4.9869C6.61394 4.96681 6.69427 4.92665 6.85492 4.88649L9.64632 3.94264C9.84714 3.86231 9.98771 3.66149 9.92746 3.46067V3.44059C9.8873 3.23977 9.70656 3.11927 9.50574 3.11927C9.48566 3.11927 9.4455 3.11927 9.42542 3.11927L6.57378 3.68157C6.47337 3.70165 6.41312 3.70165 6.35287 3.70165C6.31271 3.70165 6.29263 3.70165 6.27255 3.70165C6.31271 3.68157 6.39304 3.64141 6.55369 3.58116C6.93525 3.46067 7.29673 3.34018 7.67828 3.21968C8.6623 2.89837 9.78689 2.5369 11.3734 2.15534C11.5139 2.11518 11.6545 2.11518 11.7951 2.11518C12.0762 2.11518 12.3172 2.1955 12.498 2.316L13.0803 2.77788C13.2209 2.89837 13.3816 2.93854 13.5824 2.93854C13.6828 2.93854 13.8033 2.91845 13.9238 2.89837L23.0611 0.548782C23.0611 0.528701 23.0812 0.528701 23.1012 0.528701ZM23.1012 0.327881C23.0812 0.327881 23.041 0.327881 23.0209 0.347963L13.8635 2.69755C13.7631 2.71763 13.6627 2.73772 13.5824 2.73772C13.4217 2.73772 13.3012 2.69755 13.2209 2.61722L12.6385 2.15534C12.4377 1.99468 12.1365 1.91436 11.8152 1.91436C11.6545 1.91436 11.5139 1.93444 11.3533 1.9746C9.14427 2.47665 7.85902 2.9787 6.51353 3.40042C6.17214 3.50083 6.03156 3.60124 6.07173 3.7619C6.09181 3.86231 6.19222 3.92255 6.37296 3.92255C6.45328 3.92255 6.53361 3.92255 6.63402 3.90247L9.50574 3.36026H9.54591C9.64632 3.36026 9.74673 3.4205 9.76681 3.541C9.78689 3.66149 9.72664 3.7619 9.60615 3.80206L6.81476 4.74591C6.45328 4.86641 6.33279 4.94673 6.37296 5.10739C6.39304 5.2078 6.47337 5.26804 6.6541 5.26804C6.73443 5.26804 6.81476 5.26804 6.93525 5.24796L9.8873 4.88649H9.92746C10.0279 4.88649 10.1283 4.94673 10.1484 5.06722C10.1684 5.18772 10.0881 5.30821 9.98771 5.32829L7.15615 6.09141C6.81476 6.19181 6.67419 6.29222 6.71435 6.45288C6.73443 6.55329 6.83484 6.61354 7.01558 6.61354C7.09591 6.61354 7.17623 6.61354 7.27664 6.59345C8.6623 6.35247 10.048 6.25206 12.2369 5.75001C12.7389 5.62952 13.1607 5.38854 13.3213 5.02706L13.6426 4.36436C13.723 4.2037 13.8836 4.06313 14.2049 4.00288L23.3422 2.05493C23.6836 1.9746 23.8844 1.43239 23.8041 1.091C23.6836 0.709438 23.4025 0.327881 23.1012 0.327881Z" fill="#434343"/>
<path d="M7.97952 2.35619C6.5537 2.83816 7.17625 5.6898 7.59797 6.65373C7.87911 7.29636 8.26067 7.99923 8.1201 8.7021C8.03977 9.10373 7.7787 9.48529 7.67829 9.88693C7.39715 10.9914 7.63813 12.1562 8.18034 13.1402C8.38116 13.5218 9.0037 13.0197 8.82297 12.6783C8.26067 11.6742 8.05985 10.5095 8.50165 9.42505C8.74264 8.84267 8.92338 8.38078 8.82297 7.75824C8.66231 6.85455 8.07993 6.09144 7.93936 5.16767C7.87911 4.80619 7.65821 3.15947 8.10002 3.0189C8.48157 2.87833 8.46149 2.19554 7.97952 2.35619Z" fill="url(#paint4_radial_8_575)"/>
<path d="M13.2611 4.94674L13.5824 4.28403C13.6627 4.12337 13.8234 3.9828 14.1447 3.92255L23.282 1.9746C23.6234 1.89428 23.8242 1.35206 23.7439 1.01067C23.6635 0.669276 23.3221 0.267637 22.9807 0.347965L13.8635 2.69755C13.5422 2.77788 13.3414 2.73772 13.2008 2.61723L12.6184 2.15534C12.3172 1.91436 11.8152 1.85411 11.3332 1.95452C9.12419 2.45657 7.83894 2.95862 6.49345 3.38034C6.15206 3.48075 6.01148 3.58116 6.05165 3.74182C6.09181 3.90247 6.25247 3.94264 6.61394 3.88239L9.48566 3.34018C9.60615 3.3201 9.72665 3.38034 9.74673 3.50083C9.76681 3.62133 9.70656 3.72174 9.58607 3.7619L6.79468 4.70575C6.4332 4.82624 6.31271 4.90657 6.35288 5.06723C6.39304 5.2078 6.5537 5.24796 6.91517 5.18772L9.86722 4.82624C9.98771 4.80616 10.0881 4.88649 10.1283 4.9869C10.1484 5.10739 10.068 5.22788 9.96763 5.24796L7.13607 6.01108C6.79468 6.11149 6.6541 6.2119 6.69427 6.37255C6.73443 6.53321 6.89509 6.55329 7.25656 6.51313C8.64222 6.27215 10.0279 6.17174 12.2168 5.66969C12.6787 5.54919 13.1004 5.30821 13.2611 4.94674Z" fill="url(#paint5_linear_8_575)"/>
<path opacity="0.2" d="M23.1012 0.528701C23.3021 0.528701 23.523 0.809848 23.5631 1.05083C23.6033 1.21149 23.543 1.43239 23.4426 1.59304C23.3824 1.69345 23.3021 1.7537 23.2418 1.77378L14.1045 3.72173C13.743 3.78198 13.5221 3.94263 13.4016 4.2037L13.0803 4.88649C12.9398 5.16763 12.5984 5.38854 12.1365 5.48895C10.6303 5.83034 9.50574 5.991 8.52173 6.13157C8.05984 6.19182 7.61804 6.25206 7.19632 6.33239C7.09591 6.33239 7.01558 6.33239 6.95533 6.33239C6.91517 6.33239 6.89509 6.33239 6.87501 6.33239C6.91517 6.31231 6.97542 6.27214 7.15615 6.2119L9.98771 5.44878C10.2086 5.38854 10.3492 5.16763 10.309 4.94673C10.309 4.94673 10.309 4.94673 10.309 4.92665C10.2689 4.72583 10.0881 4.60534 9.8873 4.60534C9.86722 4.60534 9.84714 4.60534 9.82705 4.60534L6.87501 4.96682C6.87501 4.96682 6.87501 4.96682 6.85492 4.96682C6.75451 4.9869 6.67419 4.9869 6.61394 4.9869C6.59386 4.9869 6.59386 4.9869 6.57378 4.9869C6.61394 4.96681 6.69427 4.92665 6.85492 4.88649L9.64632 3.94264C9.84714 3.86231 9.98771 3.66149 9.92746 3.46067V3.44059C9.8873 3.23977 9.70656 3.11927 9.50574 3.11927C9.48566 3.11927 9.4455 3.11927 9.42542 3.11927L6.57378 3.68157C6.47337 3.70165 6.41312 3.70165 6.35287 3.70165C6.31271 3.70165 6.29263 3.70165 6.27255 3.70165C6.31271 3.68157 6.39304 3.64141 6.55369 3.58116C6.93525 3.46067 7.29673 3.34018 7.67828 3.21968C8.6623 2.89837 9.78689 2.5369 11.3734 2.15534C11.5139 2.11518 11.6545 2.11518 11.7951 2.11518C12.0762 2.11518 12.3172 2.1955 12.498 2.316L13.0803 2.77788C13.2209 2.89837 13.3816 2.93854 13.5824 2.93854C13.6828 2.93854 13.8033 2.91845 13.9238 2.89837L23.0611 0.548782C23.0611 0.528701 23.0812 0.528701 23.1012 0.528701ZM23.1012 0.327881C23.0812 0.327881 23.041 0.327881 23.0209 0.347963L13.8635 2.69755C13.7631 2.71763 13.6627 2.73772 13.5824 2.73772C13.4217 2.73772 13.3012 2.69755 13.2209 2.61722L12.6385 2.15534C12.4377 1.99468 12.1365 1.91436 11.8152 1.91436C11.6545 1.91436 11.5139 1.93444 11.3533 1.9746C9.14427 2.47665 7.85902 2.9787 6.51353 3.40042C6.17214 3.50083 6.03156 3.60124 6.07173 3.7619C6.09181 3.86231 6.19222 3.92255 6.37296 3.92255C6.45328 3.92255 6.53361 3.92255 6.63402 3.90247L9.50574 3.36026H9.54591C9.64632 3.36026 9.74673 3.4205 9.76681 3.541C9.78689 3.66149 9.72664 3.7619 9.60615 3.80206L6.81476 4.74591C6.45328 4.86641 6.33279 4.94673 6.37296 5.10739C6.39304 5.2078 6.47337 5.26804 6.6541 5.26804C6.73443 5.26804 6.81476 5.26804 6.93525 5.24796L9.8873 4.88649H9.92746C10.0279 4.88649 10.1283 4.94673 10.1484 5.06722C10.1684 5.18772 10.0881 5.30821 9.98771 5.32829L7.15615 6.09141C6.81476 6.19181 6.67419 6.29222 6.71435 6.45288C6.73443 6.55329 6.83484 6.61354 7.01558 6.61354C7.09591 6.61354 7.17623 6.61354 7.27664 6.59345C8.6623 6.35247 10.048 6.25206 12.2369 5.75001C12.7389 5.62952 13.1607 5.38854 13.3213 5.02706L13.6426 4.36436C13.723 4.2037 13.8836 4.06313 14.2049 4.00288L23.3422 2.05493C23.6836 1.9746 23.8844 1.43239 23.8041 1.091C23.6836 0.709438 23.4025 0.327881 23.1012 0.327881Z" fill="#434343"/>
<path d="M9.68646 3.48075C9.06392 3.19961 8.76269 3.92256 8.66228 4.40453C8.40122 5.66969 8.96351 6.63362 9.22458 7.81846C9.34507 8.34059 9.34507 8.82256 9.16433 9.30453C9.04384 9.60576 8.94343 9.82666 8.92335 10.1681C8.88319 11.373 10.0078 12.116 8.88319 13.2406C8.52171 13.6021 8.9836 14.0037 9.32499 13.6422C9.90737 13.0599 10.2688 12.4172 10.0881 11.5939C9.90737 10.7906 9.44548 10.2685 9.78687 9.42502C10.0479 8.78239 10.068 8.20002 9.90737 7.49715C9.78687 6.9951 9.54589 6.53321 9.4254 6.03117C9.32499 5.64961 9.28483 5.24797 9.28483 4.86641C9.30491 4.56518 9.44548 4.24387 9.26474 4.16354C9.62622 4.3242 10.0881 3.68157 9.68646 3.48075Z" fill="#FDD836"/>
<path d="M7.79875 3.07911C8.32088 3.07911 8.16022 5.30821 8.14014 5.58936C8.0799 6.33239 7.83891 7.05534 7.71842 7.79838C7.63809 8.30043 7.65818 8.82256 7.81883 9.30452C7.91924 9.58567 8.0799 9.76641 8.22047 10.0074C8.5217 10.6099 8.44137 11.0517 8.12006 11.6139C7.83891 12.0558 8.46145 12.2365 8.68236 11.8549C9.02375 11.2926 9.42539 10.6902 9.14424 10.0074C8.94342 9.50534 8.5217 9.20411 8.42129 8.6619C8.28072 7.97911 8.50162 7.33649 8.64219 6.69387C8.78277 6.01108 9.42539 2.41641 8.03973 2.39633C7.65818 2.35616 7.33686 3.07911 7.79875 3.07911Z" fill="url(#paint6_radial_8_575)"/>
<path d="M9.62621 5.16763C9.92744 5.83033 10.0078 6.49304 9.86719 7.21599C9.78687 7.61763 9.70654 7.99919 9.7467 8.40083C9.80695 9.04345 10.3893 9.78648 9.98768 10.3689C9.7467 10.7103 10.1483 11.2926 10.4295 10.8508C11.0119 10.0074 10.6102 9.44509 10.4094 8.56148C10.2487 7.85861 10.5701 7.25616 10.5701 6.57337C10.5701 5.93074 10.4094 5.24796 10.1283 4.66558C9.94752 4.24386 9.46555 4.82624 9.62621 5.16763Z" fill="url(#paint7_radial_8_575)"/>
<g opacity="0.2">
<path d="M7.81889 3.6615C7.73857 3.6615 7.67832 3.6615 7.61808 3.6615C7.59799 3.90248 7.61808 4.16355 7.61808 4.42461C7.6984 4.40453 7.75865 4.38445 7.81889 4.36437C7.79881 4.12338 7.79881 3.8824 7.81889 3.6615Z" fill="#434343"/>
<path d="M8.05987 5.75002C7.99963 5.58936 7.93938 5.34838 7.89922 5.16764C7.89922 5.14756 7.89922 5.1074 7.87913 5.04715H7.67831C7.67831 5.1074 7.6984 5.14756 7.6984 5.18772C7.73856 5.38854 7.77872 5.56928 7.85905 5.79018C7.9193 5.81026 8.05987 5.7701 8.05987 5.75002Z" fill="#434343"/>
<path d="M8.12012 5.62955C8.12012 5.70987 8.10004 5.7902 8.10004 5.85045C8.12012 5.7902 8.1402 5.70988 8.18036 5.64963C8.16028 5.64963 8.1402 5.62955 8.12012 5.62955Z" fill="#434343"/>
<path d="M8.07995 3.01886C8.03978 2.9787 7.97954 2.95862 7.93937 2.95862H7.91929C7.85905 2.95862 7.77872 3.01886 7.73855 3.07911C7.71847 3.09919 7.77872 3.09919 7.7988 3.07911C7.91929 3.11927 7.91929 3.11927 7.97954 3.21968C8.28077 3.70165 8.16028 5.34837 8.14019 5.58936V5.62952C8.16028 5.62952 8.10003 5.97091 8.07995 6.05124H8.10003H8.12011C8.22052 6.05124 8.28077 5.97091 8.30085 5.8705C8.32093 5.77009 8.32093 5.66968 8.34101 5.58936C8.34101 5.52911 8.52175 3.50083 8.07995 3.01886Z" fill="#434343"/>
<path d="M8.28078 9.96722H8.26069C8.16028 9.96722 8.10004 10.0476 8.07996 10.1279C8.01971 10.4894 8.01971 10.8709 8.07996 11.2525C8.10004 11.3328 8.16028 11.4131 8.26069 11.4131H8.28078C8.3611 11.4131 8.44143 11.373 8.46151 11.2926C8.62217 10.891 8.62217 10.4894 8.46151 10.0676C8.44143 10.0275 8.3611 9.96722 8.28078 9.96722ZM8.28078 11.2324C8.22053 10.8709 8.22053 10.5295 8.28078 10.168C8.44143 10.5697 8.42135 10.891 8.28078 11.2324Z" fill="#434343"/>
<path d="M7.31683 3.72174C7.25659 3.74182 7.17626 3.7619 7.11601 3.80207C7.09593 4.04305 7.09593 4.36436 7.11601 4.62543C7.17626 4.60535 7.23651 4.58527 7.31683 4.56518C7.27667 4.28404 7.27667 3.96272 7.31683 3.72174Z" fill="#434343"/>
<path d="M7.53775 5.91064C7.47751 5.66965 7.41726 5.40859 7.3771 5.12744C7.3771 5.12744 7.25661 5.14752 7.17628 5.14752C7.21644 5.40859 7.29677 5.7299 7.35702 5.9508C7.41726 5.93072 7.47751 5.91064 7.53775 5.91064Z" fill="#434343"/>
<path d="M10.4095 8.58155C10.2488 7.87868 10.5701 7.27622 10.5701 6.59343C10.5701 5.95081 10.4095 5.26802 10.1283 4.68564C10.0681 4.56515 10.0078 4.52499 9.92748 4.52499C9.72667 4.52499 9.48568 4.92663 9.60617 5.16761C9.9074 5.83032 9.98773 6.49302 9.84716 7.21597C9.84716 7.23605 9.84716 7.25614 9.82707 7.27622C9.70658 6.8545 9.50576 6.45286 9.40535 6.03114C9.30494 5.64958 9.26478 5.24794 9.26478 4.86638C9.28486 4.56515 9.42544 4.24384 9.2447 4.16351L9.16437 4.34425C9.14429 4.34425 9.14429 4.32417 9.14429 4.32417C9.14429 4.36433 9.12421 4.48482 9.12421 4.56515C9.10412 4.66556 9.08404 4.76597 9.08404 4.88646C9.06396 5.2881 9.12421 5.70982 9.22462 6.11146C9.28486 6.35245 9.36519 6.57335 9.4656 6.81433C9.54593 7.01515 9.60617 7.17581 9.66642 7.37663C9.6865 7.45696 9.76683 7.5172 9.86724 7.5172C9.96765 7.5172 10.0279 7.43687 10.048 7.35655V7.31638V7.27622C10.1885 6.5131 10.1082 5.79015 9.78691 5.10737C9.76683 5.04712 9.76683 4.94671 9.80699 4.86638C9.84716 4.78605 9.88732 4.74589 9.9074 4.74589C9.9074 4.74589 9.92748 4.76597 9.92748 4.78605C10.2086 5.38851 10.3492 6.03114 10.3492 6.61351C10.3492 6.8545 10.309 7.09548 10.2488 7.35655C10.1685 7.75818 10.0881 8.17991 10.1886 8.64179C10.2287 8.84261 10.289 9.00327 10.3291 9.184C10.5099 9.76638 10.6304 10.1881 10.2287 10.7906C10.1886 10.8508 10.1685 10.8508 10.1685 10.8508C10.1685 10.8508 10.1283 10.8106 10.1082 10.7504C10.0881 10.6902 10.0681 10.5897 10.1283 10.5094C10.4295 10.0475 10.2488 9.5254 10.0881 9.06351L10.0681 9.00327C10.048 8.92294 9.96765 8.86269 9.88732 8.86269C9.80699 8.86269 9.72666 8.92294 9.70658 9.02335C9.66642 9.16392 9.62626 9.28441 9.58609 9.40491C9.32503 10.0676 9.50576 10.5697 9.6865 11.0315C9.76683 11.2324 9.84716 11.4533 9.88732 11.6742C10.0279 12.3369 9.80699 12.8992 9.18445 13.5418C9.14429 13.582 9.08404 13.6221 9.04388 13.6221C9.00371 13.6221 8.98363 13.602 8.96355 13.582C8.94347 13.5418 8.96355 13.4815 9.0238 13.4213C9.82707 12.5979 9.58609 11.9352 9.34511 11.2926C9.30494 11.2123 9.28486 11.132 9.2447 11.0315C9.22462 10.9512 9.14429 10.891 9.06396 10.891C8.98363 10.891 8.9033 10.9311 8.88322 11.0115C8.78281 11.2324 8.66232 11.4533 8.52175 11.6541L8.48158 11.7344C8.4615 11.7746 8.42134 11.8147 8.38117 11.8348C8.28076 11.875 8.2406 11.9955 8.28076 12.0758C8.38117 12.3168 8.48158 12.5779 8.62216 12.7988C8.64224 12.8389 8.62216 12.8992 8.60207 12.9393C8.54183 13.0397 8.44142 13.1 8.38117 13.1C8.36109 13.1 8.36109 13.1 8.34101 13.0598C7.77871 12.0356 7.59798 10.9311 7.83896 9.94712C7.87912 9.78646 7.93937 9.62581 8.0197 9.44507C8.03978 9.38482 8.03978 9.32458 8.0197 9.28441C8.0197 9.26433 8.0197 9.26433 7.99962 9.24425C7.97953 9.22417 7.97953 9.22417 7.97953 9.20409C7.83896 8.78236 7.7988 8.3004 7.87912 7.79835C7.91929 7.57745 7.95945 7.37663 7.99962 7.21597C7.99962 7.17581 7.99962 7.13564 7.97953 7.09548C7.93937 7.01515 7.89921 6.93482 7.87912 6.8545C7.83896 6.75409 7.7988 6.65368 7.75863 6.57335C7.73855 6.53319 7.71847 6.45286 7.69839 6.41269C7.63814 6.43278 7.57789 6.45286 7.49757 6.45286C7.51765 6.5131 7.53773 6.59343 7.55781 6.63359C7.63814 6.81433 7.71847 6.97499 7.7988 7.15573C7.75863 7.35655 7.71847 7.55736 7.6783 7.75818C7.59798 8.26023 7.61806 8.78236 7.77871 9.26433C7.77871 9.3045 7.7988 9.32458 7.81888 9.34466C7.73855 9.5254 7.65822 9.68605 7.61806 9.86679C7.33691 10.9713 7.57789 12.1361 8.12011 13.1201C8.18035 13.2205 8.26068 13.2606 8.34101 13.2606C8.60207 13.2606 8.9033 12.9193 8.76273 12.6582C8.64224 12.4373 8.52175 12.1963 8.44142 11.9553C8.50166 11.9152 8.58199 11.8549 8.62216 11.7746C8.76273 11.5336 8.92339 11.2926 9.04388 11.0315C9.28486 11.7746 9.66642 12.377 8.86314 13.2004C8.60207 13.4615 8.76273 13.7426 9.0238 13.7426C9.12421 13.7426 9.22462 13.7024 9.32503 13.602C9.9074 13.0197 10.2689 12.377 10.0881 11.5537C9.9074 10.7504 9.44552 10.2283 9.78691 9.38482C9.84716 9.24425 9.88732 9.10368 9.92748 8.98318C10.0881 9.44507 10.2689 9.92704 10.0078 10.3086C9.82707 10.5697 10.0078 10.9512 10.2287 10.9512C10.309 10.9512 10.3894 10.9111 10.4697 10.7906C11.0119 10.0274 10.6304 9.46515 10.4095 8.58155Z" fill="#434343"/>
<path d="M8.74268 5.91068C8.64227 5.91068 8.56195 5.991 8.54186 6.07133C8.5017 6.35248 8.46154 6.53322 8.44145 6.61354C8.42137 6.71395 8.40129 6.81436 8.36113 6.93486V7.05535C8.48162 7.35658 8.54186 7.57748 8.58203 7.79838C8.66236 8.24018 8.58203 8.60166 8.40129 9.04346C8.38121 9.10371 8.38121 9.16395 8.42137 9.2242C8.48162 9.32461 8.56195 9.42502 8.62219 9.52543C8.68244 9.62584 8.76277 9.72625 8.82301 9.82666C8.86317 9.8869 8.92342 9.92707 9.00375 9.92707H9.02383C9.10416 9.92707 9.1644 9.86682 9.18449 9.78649C9.20457 9.70617 9.24473 9.62584 9.26481 9.54551C9.2849 9.48527 9.30498 9.4451 9.32506 9.38486C9.5058 8.88281 9.52588 8.38076 9.38531 7.7783C9.30498 7.4369 9.20457 7.11559 9.10416 6.79428C9.02383 6.53322 8.9435 6.29223 8.88326 6.05125C8.90334 5.97092 8.82301 5.91068 8.74268 5.91068ZM9.22465 7.83854C9.34514 8.36068 9.34514 8.84264 9.1644 9.32461C9.10416 9.48527 9.06399 9.60576 9.00375 9.72625C8.88326 9.52543 8.7226 9.32461 8.60211 9.12379C8.76276 8.68199 8.88326 8.28035 8.80293 7.75822C8.76276 7.47707 8.66236 7.216 8.56195 6.97502C8.58203 6.87461 8.60211 6.75412 8.64227 6.65371C8.66236 6.53322 8.70252 6.35248 8.74268 6.1115C8.88326 6.67379 9.08408 7.216 9.22465 7.83854Z" fill="#434343"/>
<path d="M7.47748 3.09918C7.59798 2.85819 7.75863 2.67746 7.97953 2.57705L7.99961 2.55696C8.0197 2.55696 8.0197 2.53688 8.03978 2.53688C8.07994 2.5168 8.10002 2.5168 8.12011 2.5168H8.16027C8.18035 2.53688 8.20043 2.55696 8.2406 2.57705C8.50166 2.69754 8.66232 3.09918 8.72257 3.76188C8.72257 3.84221 8.78281 3.92254 8.88322 3.94262H8.92339C8.98363 3.94262 9.06396 3.90246 9.10412 3.84221C9.20453 3.66147 9.32502 3.58114 9.4656 3.58114C9.52584 3.58114 9.58609 3.60123 9.64634 3.62131C9.66642 3.64139 9.6865 3.64139 9.6865 3.70164C9.66642 3.82213 9.52584 3.94262 9.44552 3.94262C9.44552 3.94262 9.42543 3.94262 9.40535 3.94262L9.32502 4.12336C9.36519 4.14344 9.40535 4.14344 9.44552 4.14344C9.76683 4.14344 10.0881 3.60123 9.74675 3.44057C9.64634 3.40041 9.56601 3.38032 9.48568 3.38032C9.26478 3.38032 9.08404 3.54098 8.96355 3.7418C8.92339 3.09918 8.76273 2.55696 8.36109 2.37623C8.32093 2.33606 8.26068 2.2959 8.18035 2.2959C8.14019 2.2959 8.07994 2.2959 8.03978 2.31598C8.0197 2.31598 7.99961 2.33606 7.97953 2.33606C7.6783 2.45655 7.47748 2.69754 7.33691 3.01885C7.31683 3.05901 7.29675 3.11926 7.29675 3.11926C7.29675 3.11926 7.43732 3.0791 7.47748 3.09918Z" fill="#434343"/>
</g>
<defs>
<linearGradient id="paint0_linear_8_575" x1="7.17487" y1="9.66474" x2="17.9715" y2="20.4612" gradientUnits="userSpaceOnUse">
<stop offset="0.1705" stop-color="#FAFBFB"/>
<stop offset="0.8701" stop-color="#EEEEEE"/>
</linearGradient>
<linearGradient id="paint1_linear_8_575" x1="13.0195" y1="9.5244" x2="13.0195" y2="20.8757" gradientUnits="userSpaceOnUse">
<stop offset="0.2592" stop-color="#FCB316"/>
<stop offset="0.9991" stop-color="#C98C2B"/>
</linearGradient>
<radialGradient id="paint2_radial_8_575" cx="0" cy="0" r="1" gradientUnits="userSpaceOnUse" gradientTransform="translate(12.9819 11.925) scale(7.79984 3.57622)">
<stop offset="0.5047" stop-color="#F05323"/>
<stop offset="1" stop-color="#D74527"/>
</radialGradient>
<linearGradient id="paint3_linear_8_575" x1="7.17601" y1="4.87699" x2="26.7067" y2="0.35399" gradientUnits="userSpaceOnUse">
<stop offset="0.1706" stop-color="#D0D8DC"/>
<stop offset="1" stop-color="#90A4AE"/>
</linearGradient>
<radialGradient id="paint4_radial_8_575" cx="0" cy="0" r="1" gradientUnits="userSpaceOnUse" gradientTransform="translate(7.44394 4.69233) scale(7.85265)">
<stop offset="0.0197" stop-color="#FEC111"/>
<stop offset="0.9349" stop-color="#F05323"/>
</radialGradient>
<linearGradient id="paint5_linear_8_575" x1="8.7892" y1="4.50341" x2="32.4241" y2="-0.970054" gradientUnits="userSpaceOnUse">
<stop offset="0.1636" stop-color="#B0BEC5"/>
<stop offset="1" stop-color="#78909C"/>
</linearGradient>
<radialGradient id="paint6_radial_8_575" cx="0" cy="0" r="1" gradientUnits="userSpaceOnUse" gradientTransform="translate(8.24718 3.62133) scale(7.32409)">
<stop offset="0.3901" stop-color="#FFCB28"/>
<stop offset="1" stop-color="#F37046"/>
</radialGradient>
<radialGradient id="paint7_radial_8_575" cx="0" cy="0" r="1" gradientUnits="userSpaceOnUse" gradientTransform="translate(10.2554 6.1651) scale(6.83409 6.83409)">
<stop offset="0.0197" stop-color="#FEC111"/>
<stop offset="1" stop-color="#F05323"/>
</radialGradient>
</defs>
</svg>
